<svg width="66" height="50" viewBox="0 0 66 50" fill="none" xmlns="http://www.w3.org/2000/svg">
<path d="M1.17282 12.6402L20.5866 1.46436L20.4138 15.4054L1 26.5813L1.17282 12.6402Z" stroke="#C0753E" stroke-miterlimit="10" stroke-linejoin="round"/>
<path d="M20.4138 15.4053L64.8292 42.1352L53.2501 48.8177L17.879 27.5605L10.102 32.0539L1 26.5811L20.4138 15.4053Z" stroke="#C0753E" stroke-miterlimit="10" stroke-linejoin="round"/>
<path d="M18.0519 13.6196L17.8791 27.5607L10.1021 32.0541L10.2749 18.113L18.0519 13.6196Z" stroke="#C0753E" stroke-miterlimit="10" stroke-linejoin="round"/>
<path d="M10.2748 18.1129L10.102 32.0539L1 26.5812L1.17282 12.6401L10.2748 18.1129Z" stroke="#C0753E" stroke-miterlimit="10" stroke-linejoin="round"/>
<path d="M20.5866 1.46436L65.0021 28.1943L64.8293 42.1353L20.4138 15.4054L20.5866 1.46436Z" stroke="#C0753E" stroke-miterlimit="10" stroke-linejoin="round"/>
<path d="M53.423 34.8768L53.2502 48.8179L17.8792 27.5607L18.052 13.6196L53.423 34.8768Z" stroke="#C0753E" stroke-miterlimit="10" stroke-linejoin="round"/>
<path d="M65.0019 28.1941L64.8291 42.1351L53.25 48.8176L53.4228 34.8766L65.0019 28.1941Z" stroke="#C0753E" stroke-miterlimit="10" stroke-linejoin="round"/>
<path d="M20.4138 1L64.8292 27.7299L53.2501 34.4124L17.879 13.1552L10.102 17.6486L1 12.1759L20.4138 1Z" stroke="#C0753E" stroke-miterlimit="10" stroke-linejoin="round"/>
</svg>
