<svg width="78" height="58" viewBox="0 0 78 58" fill="none" xmlns="http://www.w3.org/2000/svg">
<path d="M13.9043 6.66181C25.8866 -0.251101 36.6593 -0.942393 45.9917 4.70315C49.6786 6.94984 51.6948 9.25415 52.1557 11.6737C52.2133 11.9041 52.2133 12.1345 52.2133 12.4226C52.1557 16.6279 52.0981 22.2158 52.0405 26.3636C52.0405 26.1332 52.0405 25.9027 51.9829 25.6147C51.522 23.1952 49.5057 20.8333 45.8189 18.6442C36.4288 12.9986 25.7138 13.6899 13.7314 20.6028" stroke="#C0753E" stroke-miterlimit="10" stroke-linejoin="round"/>
<path d="M13.7313 20.6029C9.9868 22.7344 5.83906 25.8452 1.11523 29.9353C1.17284 25.73 1.23044 20.142 1.28805 15.9943C6.01187 11.9042 10.1596 8.79335 13.9041 6.66187" stroke="#C0753E" stroke-miterlimit="10" stroke-linejoin="round"/>
<path d="M13.7313 20.6027C25.7136 13.6898 36.4863 12.9985 45.8187 18.6441C49.5056 20.8908 51.5218 23.1951 51.9827 25.6146C52.386 28.0341 50.6001 31.2025 46.6828 34.947L45.8763 35.7535C43.5144 38.0578 42.247 39.8437 42.1318 40.9382C41.959 42.0327 43.284 43.3577 45.7035 44.9131L67.94 32.0666L77.042 37.5393L43.9752 56.6075L34.8733 51.1347C30.4951 48.4848 28.0756 45.9501 27.5571 43.4729C27.0386 40.9958 28.7092 37.7698 32.7418 33.9677L33.5483 33.1612C37.3504 29.4743 37.696 27.8037 34.2396 25.7874C30.6679 23.6559 26.4625 23.944 21.7387 26.6515C18.3975 28.5526 15.2291 31.3753 12.3487 35.0046L1 29.9352C5.83904 25.845 9.98678 22.7342 13.7313 20.6027Z" stroke="#C0753E" stroke-miterlimit="10" stroke-linejoin="round"/>
<path d="M36.8319 14.6693L36.659 28.6104C36.659 27.5734 35.9101 26.7093 34.2971 25.73C30.7255 23.5985 26.5201 23.8866 21.7963 26.5941C18.455 28.4952 15.2866 31.3179 12.4062 34.9472L12.5791 21.0062C15.4595 17.3769 18.6279 14.5541 21.9691 12.6531C26.6929 9.88792 30.8983 9.65749 34.47 11.789C36.083 12.7683 36.8319 13.6324 36.8319 14.6693Z" stroke="#C0753E" stroke-miterlimit="10" stroke-linejoin="round"/>
<path d="M33.7788 19.2202C35.795 17.2615 36.832 15.8789 36.8896 14.6692C36.832 18.8745 36.7744 24.4625 36.7168 28.6102C36.7168 29.7624 35.6798 31.145 33.606 33.1612" stroke="#C0753E" stroke-miterlimit="10" stroke-linejoin="round"/>
<path d="M33.6058 33.1614L32.7417 33.9679" stroke="#C0753E" stroke-miterlimit="10" stroke-linejoin="round"/>
<path d="M32.9146 20.0267L33.7787 19.2202" stroke="#C0753E" stroke-miterlimit="10" stroke-linejoin="round"/>
<path d="M46.8554 21.0061C50.4271 17.6073 52.2129 14.6693 52.2129 12.365L52.0401 26.3636C52.0401 28.6679 50.1967 31.5483 46.6826 35.0048" stroke="#C0753E" stroke-miterlimit="10" stroke-linejoin="round"/>
<path d="M12.5791 21.0636L12.4063 35.0046L1.11523 29.9352L1.28805 15.9941L12.5791 21.0636Z" stroke="#C0753E" stroke-miterlimit="10" stroke-linejoin="round"/>
<path d="M46.0488 21.8126L46.8553 21.0061" stroke="#C0753E" stroke-miterlimit="10" stroke-linejoin="round"/>
<path d="M46.6825 35.0049L45.876 35.7538" stroke="#C0753E" stroke-miterlimit="10" stroke-linejoin="round"/>
<path d="M68.1128 18.1257L77.2148 23.5985L77.0419 37.5395L67.9399 32.0668L68.1128 18.1257Z" stroke="#C0753E" stroke-miterlimit="10" stroke-linejoin="round"/>
<path d="M45.8763 35.7535C43.5144 38.0578 42.2471 39.8437 42.1318 40.9382C42.1318 40.9958 42.1318 41.0534 42.1318 41.111L42.3047 27.17C42.3047 27.1124 42.3047 27.0548 42.3047 26.9972C42.4199 25.9026 43.6872 24.1168 46.0492 21.8125" stroke="#C0753E" stroke-miterlimit="10" stroke-linejoin="round"/>
<path d="M32.7418 33.9679C29.2277 37.3091 27.4995 40.1895 27.4419 42.4938C27.4995 38.2885 27.5571 32.7005 27.6147 28.5528C27.6147 26.2485 29.4006 23.3681 32.9146 20.0269" stroke="#C0753E" stroke-miterlimit="10" stroke-linejoin="round"/>
<path d="M45.8764 30.9722L68.113 18.1257L67.9401 32.0668L45.7036 44.9133L45.8764 30.9722Z" stroke="#C0753E" stroke-miterlimit="10" stroke-linejoin="round"/>
<path d="M42.3047 27.1702C42.3047 28.2647 43.572 29.5321 45.8763 30.9723L45.7035 44.9133C43.3992 43.4731 42.1318 42.1481 42.1318 41.1112C42.1894 36.9058 42.2471 31.3179 42.3047 27.1702Z" stroke="#C0753E" stroke-miterlimit="10" stroke-linejoin="round"/>
<path d="M34.9309 51.1349C30.5527 48.485 28.1332 45.9502 27.6147 43.4731C27.5571 43.1851 27.4995 42.8394 27.4995 42.4938L27.6723 28.5527C27.6723 28.8984 27.6723 29.1864 27.7875 29.5321C28.306 32.0092 30.7255 34.6015 35.1037 37.1939" stroke="#C0753E" stroke-miterlimit="10" stroke-linejoin="round"/>
<path d="M35.1035 37.1938L44.1479 42.6666L43.9751 56.6076L34.9307 51.1349" stroke="#C0753E" stroke-miterlimit="10" stroke-linejoin="round"/>
<path d="M77.2152 23.5984L77.0423 37.5394L43.9756 56.6075L44.1484 42.6665L77.2152 23.5984Z" stroke="#C0753E" stroke-miterlimit="10" stroke-linejoin="round"/>
<path d="M13.9041 6.66181C25.8865 -0.251102 36.6591 -0.942393 45.9915 4.70315C49.6784 6.94984 51.6947 9.25415 52.1556 11.6737C52.5588 14.0932 50.773 17.2616 46.8557 21.0061L46.0492 21.8126C43.6872 24.1169 42.4199 25.9027 42.3047 26.9973C42.1318 28.0918 43.4568 29.4168 45.8763 30.9722L68.1128 18.1257L77.2149 23.5984L44.2057 42.6665L35.1037 37.1938C30.7255 34.5439 28.306 32.0091 27.7876 29.532C27.2691 27.0549 28.9397 23.8289 32.9722 20.0268L33.7787 19.2203C37.5808 15.5334 37.9265 13.8628 34.47 11.8465C30.8984 9.71501 26.693 10.003 21.9692 12.7106C18.628 14.6117 15.4595 17.4344 12.5792 21.0637L1.23047 15.9942C6.0119 11.9041 10.1596 8.79329 13.9041 6.66181Z" stroke="#C0753E" stroke-miterlimit="10" stroke-linejoin="round"/>
</svg>
