<svg width="72" height="58" viewBox="0 0 72 58" fill="none" xmlns="http://www.w3.org/2000/svg">
<path d="M13.1552 21.179C24.7343 14.4966 34.5276 13.5748 42.7079 18.4715C47.4317 21.2942 48.8719 24.3474 47.0284 27.5735C53.8837 26.2485 59.4717 27.055 64.9444 30.3386C73.7584 35.6385 71.9725 41.8601 59.5869 49.0035C55.4391 51.3654 49.8512 54.0153 42.8231 56.7805L34.4124 49.9828C40.6916 48.2546 45.6459 46.3535 49.1023 44.3373C54.7479 41.1113 55.4392 38.807 51.9827 36.7331C48.6415 34.7168 44.3209 35.2353 39.021 38.2885C36.7743 39.5558 34.5852 40.9384 32.5113 42.3786L23.1789 36.7331C26.1745 35.2353 28.5364 33.9679 30.207 32.9886C35.1613 30.1082 35.5645 28.1495 32.3961 26.2485C29.4581 24.4627 26.1745 24.4627 20.9898 27.4583C17.9366 29.2441 14.941 31.7212 12.003 34.9472L1 29.993C5.37818 26.2485 9.4683 23.3105 13.1552 21.179Z" stroke="#C0753E" stroke-miterlimit="10" stroke-linejoin="round"/>
<path d="M13.3281 7.23811C24.9072 0.555633 34.7005 -0.366088 42.8808 4.53056C46.2796 6.60443 48.0079 8.73591 48.0079 11.0402C47.9502 15.2456 47.8926 20.8335 47.835 24.9812C47.835 22.7345 46.1644 20.5455 42.708 18.4716C34.5277 13.5749 24.7344 14.4391 13.1553 21.1791" stroke="#C0753E" stroke-miterlimit="10" stroke-linejoin="round"/>
<path d="M48.0076 11.0403L47.8348 24.9813C47.8348 25.8454 47.5468 26.7095 47.0859 27.5737L47.2588 13.6326C47.7196 12.7109 48.0076 11.8468 48.0076 11.0403Z" stroke="#C0753E" stroke-miterlimit="10" stroke-linejoin="round"/>
<path d="M13.1552 21.1791C9.41069 23.3105 5.37818 26.2485 1 29.9354C1.05761 25.7301 1.11521 20.1421 1.17282 15.9944C5.49338 12.3075 9.58352 9.36952 13.328 7.23804" stroke="#C0753E" stroke-miterlimit="10" stroke-linejoin="round"/>
<path d="M34.5851 14.7272L34.4123 28.6683C34.4123 27.8042 33.721 26.94 32.396 26.1335C29.458 24.3477 26.1744 24.3477 20.9897 27.3433C17.9365 29.1291 14.9409 31.6063 12.0029 34.8323L12.1758 20.8913C15.1137 17.7228 18.1093 15.1881 21.1625 13.4023C26.4048 10.4067 29.6309 10.4067 32.5688 12.1925C33.8938 13.0566 34.6427 13.8631 34.5851 14.7272Z" stroke="#C0753E" stroke-miterlimit="10" stroke-linejoin="round"/>
<path d="M12.1759 20.891L12.0031 34.8897L1.05762 29.9354L1.23045 15.9944L12.1759 20.891Z" stroke="#C0753E" stroke-miterlimit="10" stroke-linejoin="round"/>
<path d="M34.4122 28.7257C34.4122 29.9355 33.0296 31.318 30.2068 32.9887C28.5362 33.968 26.1167 35.2354 23.1787 36.7332L23.3515 22.7921C26.3471 21.2943 28.709 20.027 30.3797 19.0476C33.26 17.377 34.585 16.052 34.585 14.7847C34.5274 18.9324 34.4698 24.5203 34.4122 28.7257Z" stroke="#C0753E" stroke-miterlimit="10" stroke-linejoin="round"/>
<path d="M70.4746 37.4822C70.5322 34.9474 68.6888 32.5855 65.0019 30.3388C59.5292 27.0552 53.9412 26.2487 47.0859 27.5737L47.2588 13.6326C54.1141 12.3076 59.702 13.1142 65.1747 16.3978C68.8616 18.6445 70.705 21.0064 70.6474 23.5411C70.5898 27.6889 70.5322 33.2768 70.4746 37.4822Z" stroke="#C0753E" stroke-miterlimit="10" stroke-linejoin="round"/>
<path d="M54.2869 25.3846L54.1141 39.3256C54.1141 38.3463 53.4228 37.4822 52.0402 36.6757C48.699 34.6594 44.3784 35.1779 39.0785 38.2311C36.8318 39.4984 34.6427 40.881 32.5688 42.3212L32.7417 28.3802C34.8155 26.94 37.0046 25.615 39.2513 24.29C44.5512 21.2368 48.8718 20.7184 52.213 22.7346C53.5956 23.5987 54.2869 24.4628 54.2869 25.3846Z" stroke="#C0753E" stroke-miterlimit="10" stroke-linejoin="round"/>
<path d="M32.684 28.3802L32.5111 42.3212L23.1787 36.6757L23.3515 22.7346L32.684 28.3802Z" stroke="#C0753E" stroke-miterlimit="10" stroke-linejoin="round"/>
<path d="M54.1144 39.3832C54.1144 40.8234 52.5014 42.3788 49.1601 44.3374C45.7037 46.3537 40.7494 48.2547 34.4702 49.983L34.5854 35.9843C40.8647 34.2561 45.8189 32.355 49.2754 30.3388C52.6166 28.3801 54.2296 26.8247 54.2296 25.3845C54.2296 29.5899 54.172 35.1778 54.1144 39.3832Z" stroke="#C0753E" stroke-miterlimit="10" stroke-linejoin="round"/>
<path d="M70.6477 23.541L70.4749 37.482C70.4173 40.9961 66.788 44.8558 59.587 49.0036C55.4393 51.3655 49.8514 54.0154 42.8232 56.7806L42.9961 42.8396C49.9666 40.0744 55.6121 37.482 59.7599 35.0625C66.9608 30.8572 70.5901 27.0551 70.6477 23.541Z" stroke="#C0753E" stroke-miterlimit="10" stroke-linejoin="round"/>
<path d="M13.3281 7.23811C24.9072 0.555633 34.7005 -0.366088 42.8807 4.53056C47.6045 7.35333 49.0447 10.4065 47.2013 13.6326C54.0566 12.3076 59.6445 13.1141 65.1173 16.3977C73.9312 21.6976 72.1454 27.9192 59.7598 35.0626C55.612 37.4245 50.0241 40.0744 42.9959 42.8396L34.5852 35.9843C40.8645 34.2561 45.8187 32.355 49.2752 30.3387C54.9207 27.1127 55.612 24.8084 52.1555 22.7345C48.8143 20.7183 44.4937 21.2368 39.1938 24.29C36.9472 25.5573 34.7581 26.9399 32.6842 28.3801L23.3518 22.7345C26.3474 21.2368 28.7093 19.9694 30.3799 18.9901C35.3341 16.1097 35.7374 14.151 32.569 12.25C29.631 10.4641 26.3474 10.4641 21.1627 13.4597C18.1095 15.2456 15.1139 17.7227 12.1759 20.9487L1.17285 15.9945C5.55103 12.25 9.64117 9.36959 13.3281 7.23811Z" stroke="#C0753E" stroke-miterlimit="10" stroke-linejoin="round"/>
<path d="M42.9956 42.7821L42.8228 56.7807L34.4121 49.9254L34.5849 35.9844L42.9956 42.7821Z" stroke="#C0753E" stroke-miterlimit="10" stroke-linejoin="round"/>
</svg>
