<svg width="60" height="56" viewBox="0 0 60 56" fill="none" xmlns="http://www.w3.org/2000/svg">
<path d="M1.17282 8.48899L14.1345 1.05762L13.9617 14.9987L1 22.4876L1.17282 8.48899Z" stroke="#C0753E" stroke-miterlimit="10" stroke-linejoin="round"/>
<path d="M40.2309 16.727L46.1645 13.2705L45.9917 27.2115L40.0581 30.668L40.2309 16.727Z" stroke="#C0753E" stroke-miterlimit="10" stroke-linejoin="round"/>
<path d="M14.1347 1.05762L40.231 16.7269L40.0581 30.6679L13.9619 14.9987L14.1347 1.05762Z" stroke="#C0753E" stroke-miterlimit="10" stroke-linejoin="round"/>
<path d="M46.1645 13.2705L55.2665 18.7432L55.0937 32.6843L45.9917 27.2115L46.1645 13.2705Z" stroke="#C0753E" stroke-miterlimit="10" stroke-linejoin="round"/>
<path d="M40.058 30.6678L46.0492 27.2113L55.1511 32.6841L49.1599 36.1405L58.4348 41.7284L46.8556 48.4109L37.5808 42.823L16.4964 54.9782L5.78145 48.5261L1.05762 22.4299L14.0193 14.9409L40.058 30.6678ZM28.4788 37.3503L14.0769 28.7091L17.2454 43.8599L28.4788 37.3503Z" stroke="#C0753E" stroke-miterlimit="10" stroke-linejoin="round"/>
<path d="M55.2666 18.7432L55.0937 32.6842L49.1602 36.1407L49.333 22.1996L55.2666 18.7432Z" stroke="#C0753E" stroke-miterlimit="10" stroke-linejoin="round"/>
<path d="M28.6519 23.4094L28.4791 37.3505L14.0195 28.7093L14.1923 14.7107L28.6519 23.4094Z" stroke="#C0753E" stroke-miterlimit="10" stroke-linejoin="round"/>
<path d="M49.333 22.1997L58.6078 27.7876L58.435 41.7287L49.1602 36.1407L49.333 22.1997Z" stroke="#C0753E" stroke-miterlimit="10" stroke-linejoin="round"/>
<path d="M14.1923 14.7107L17.3608 29.9191L17.1879 43.8601L14.0195 28.7093L14.1923 14.7107Z" stroke="#C0753E" stroke-miterlimit="10" stroke-linejoin="round"/>
<path d="M17.3603 29.9188L28.6514 23.4092L28.4786 37.3502L17.1875 43.8599L17.3603 29.9188Z" stroke="#C0753E" stroke-miterlimit="10" stroke-linejoin="round"/>
<path d="M47.0287 34.47L46.8559 48.411L37.5234 42.8231L37.6963 28.8821L47.0287 34.47Z" stroke="#C0753E" stroke-miterlimit="10" stroke-linejoin="round"/>
<path d="M58.6074 27.7876L58.4346 41.7286L46.8555 48.4111L47.0283 34.4701L58.6074 27.7876Z" stroke="#C0753E" stroke-miterlimit="10" stroke-linejoin="round"/>
<path d="M5.89664 34.5852L5.72381 48.5839L1 22.4877L1.17282 8.48901L5.89664 34.5852Z" stroke="#C0753E" stroke-miterlimit="10" stroke-linejoin="round"/>
<path d="M16.6115 41.0373L16.4386 54.9783L5.72363 48.5838L5.89647 34.5852L16.6115 41.0373Z" stroke="#C0753E" stroke-miterlimit="10" stroke-linejoin="round"/>
<path d="M37.6962 28.8821L37.5233 42.8231L16.439 54.9783L16.6118 41.0373L37.6962 28.8821Z" stroke="#C0753E" stroke-miterlimit="10" stroke-linejoin="round"/>
<path d="M40.2308 16.7269L46.222 13.2704L55.324 18.7431L49.3328 22.1996L58.6076 27.7875L47.0285 34.47L37.7537 28.8821L16.6693 41.0373L5.95427 34.5852L1.17285 8.48898L14.1346 1L40.2308 16.7269ZM28.6517 23.4093L14.2498 14.7682L17.4182 29.919L28.6517 23.4093Z" stroke="#C0753E" stroke-miterlimit="10" stroke-linejoin="round"/>
</svg>
