<svg width="109" height="101" viewBox="0 0 109 101" fill="none" xmlns="http://www.w3.org/2000/svg">
<g clip-path="url(#clip0_157_275)">
<path d="M86.2408 3.21572C86.2408 3.21572 89.453 0.771407 96.2631 4.11626C103.073 7.4611 107.956 4.63085 107.956 4.63085L107.185 15.8232C107.185 15.8232 100.246 18.5248 93.8218 14.6654C87.3972 10.806 85.3413 14.6654 85.3413 14.6654L86.2408 3.21572Z" fill="white"/>
<path d="M92.4084 54.2888C92.4069 61.8199 90.1537 69.1781 85.9389 75.4159C81.7242 81.6537 75.7409 86.4854 68.7595 89.2888C67.4856 89.8016 66.1841 90.2426 64.8611 90.61C58.2548 92.4394 51.2766 92.4403 44.6699 90.6126C43.7666 90.3617 42.8774 90.0783 42.0024 89.7622C40.0124 89.0456 38.087 88.1603 36.2473 87.116C24.8231 80.6462 17.1123 68.3694 17.1123 54.2888C17.1067 44.5934 20.8349 35.2691 27.5211 28.2558C34.2074 21.2425 43.3369 17.0802 53.0103 16.6349C53.5911 16.6078 54.1744 16.5945 54.7603 16.595C55.4041 16.595 56.0444 16.6108 56.6813 16.6426C66.3217 17.1345 75.405 21.3156 82.0541 28.3219C88.7032 35.3282 92.41 44.6241 92.4084 54.2888Z" fill="white"/>
<path d="M102.111 16.7531C99.6381 16.7532 96.69 16.2567 93.852 14.5518C91.2552 12.9918 89.1027 12.4764 87.4543 13.0199C87.0256 13.1546 86.6283 13.3741 86.2857 13.6651C85.9432 13.9562 85.6624 14.3131 85.4599 14.7146L85.126 15.5186L86.4622 2.28076L86.4968 2.2479C86.6104 2.13987 89.3599 -0.35659 96.5547 3.1774C103.601 6.63846 108.74 3.75493 108.791 3.72535L109 3.60449L108.983 3.84558L108.163 15.7554L108.087 15.785C108.044 15.8017 105.533 16.753 102.111 16.7531ZM88.822 12.5535C90.2857 12.5535 92.0147 13.148 93.9842 14.3311C100.277 18.1115 107.123 15.8561 107.918 15.573L108.711 4.05488C107.668 4.55842 102.814 6.53839 96.4415 3.40844C89.829 0.160389 87.0411 2.13527 86.708 2.40539L85.5273 14.1022C85.9885 13.4769 86.6346 13.0127 87.374 12.7754C87.8417 12.6246 88.3306 12.5496 88.822 12.5535Z" fill="#3F3D56"/>
<path d="M53.9892 91.8543C50.3582 91.8567 46.7437 91.3659 43.2445 90.3954C42.2759 90.1264 41.3202 89.8217 40.4038 89.4898C38.2849 88.7261 36.2348 87.7834 34.2755 86.6719C27.9257 83.076 22.6757 77.8144 19.0903 71.4534C15.505 65.0925 13.7202 57.873 13.9279 50.572C14.1356 43.271 16.3281 36.1649 20.2693 30.0186C24.2105 23.8724 29.7512 18.9186 36.2951 15.6904C41.2329 13.2491 46.6241 11.863 52.1258 11.6204C53.3669 11.5625 54.6815 11.563 56.0344 11.6286C65.1615 12.0988 73.8544 15.6765 80.673 21.7692C87.4917 27.8619 92.027 36.1039 93.5277 45.13C95.0285 54.1561 93.4045 63.4247 88.925 71.4004C84.4454 79.3762 77.379 85.5805 68.8962 88.9858C67.5395 89.5313 66.1535 90.0011 64.7447 90.3927C61.2421 91.3649 57.6239 91.8566 53.9892 91.8543ZM53.9892 11.8353C53.3619 11.8353 52.7389 11.8495 52.1376 11.8775C46.6712 12.1184 41.3147 13.4956 36.4086 15.9213C29.3946 19.3807 23.552 24.8293 19.6081 31.5889C15.6642 38.3484 13.7934 46.1201 14.2286 53.9363C14.6637 61.7525 17.3857 69.2679 22.0554 75.5467C26.7252 81.8255 33.1365 86.5902 40.4911 89.2477C41.4015 89.5776 42.3509 89.8803 43.3132 90.1474C50.3033 92.0812 57.6864 92.0803 64.6761 90.1447C66.0757 89.7557 67.4526 89.289 68.8005 88.7469C77.2307 85.3651 84.2539 79.201 88.7062 71.276C93.1586 63.3509 94.7729 54.1406 93.2817 45.1713C91.7905 36.2019 87.2833 28.0119 80.5068 21.9583C73.7304 15.9046 65.0915 12.3508 56.0217 11.8856C55.3327 11.8522 54.6488 11.8353 53.9892 11.8353Z" fill="#3F3D56"/>
<path d="M58.7909 100.558H0V100.816H58.7909V100.558Z" fill="#3F3D56"/>
<path d="M10.0432 100.774L9.90534 100.722C9.87504 100.711 6.859 99.554 5.44615 96.9307C4.03325 94.3072 4.72508 91.1485 4.73223 91.117L4.7648 90.9731L4.90264 91.0249C4.93294 91.0363 7.94892 92.1933 9.36182 94.8166C10.7747 97.4401 10.0829 100.599 10.0757 100.63L10.0432 100.774ZM5.6724 96.8085C6.8669 99.0266 9.25027 100.164 9.85414 100.423C9.96896 99.7751 10.329 97.1547 9.13558 94.9387C7.94227 92.7231 5.55796 91.5843 4.95383 91.3242C4.83897 91.9726 4.47902 94.5928 5.6724 96.8085H5.6724Z" fill="#3F3D56"/>
<path d="M6.52598 96.0106C9.06504 97.54 10.0429 100.578 10.0429 100.578C10.0429 100.578 6.90415 101.136 4.36508 99.6067C1.82602 98.0772 0.848145 95.0393 0.848145 95.0393C0.848145 95.0393 3.98691 94.4811 6.52598 96.0106Z" fill="white"/>
<path d="M43.9951 30.8275C50.6378 30.8275 56.0228 25.4359 56.0228 18.7851C56.0228 12.1343 50.6378 6.74268 43.9951 6.74268C37.3523 6.74268 31.9673 12.1343 31.9673 18.7851C31.9673 25.4359 37.3523 30.8275 43.9951 30.8275Z" fill="#2F2E41"/>
<path d="M46.4991 30.6703C51.2055 30.6703 55.0207 26.8505 55.0207 22.1384C55.0207 17.4263 51.2055 13.6064 46.4991 13.6064C41.7928 13.6064 37.9775 17.4263 37.9775 22.1384C37.9775 26.8505 41.7928 30.6703 46.4991 30.6703Z" fill="#A0616A"/>
<path d="M39.7134 24.0344C39.7134 24.0344 38.4509 34.1464 33.8745 36.2003C29.2981 38.2543 46.4991 37.1483 46.4991 37.1483C46.4991 37.1483 46.4991 27.9844 47.1303 27.6684C47.7615 27.3524 39.7134 24.0344 39.7134 24.0344Z" fill="#A0616A"/>
<path d="M37.8199 90.8679L37.1886 94.1859C37.1886 94.1859 28.3515 99.3999 32.6122 100.822C36.873 102.244 42.0807 94.6599 42.0807 94.6599L41.1338 90.8679H37.8199Z" fill="#A0616A"/>
<path d="M43.9741 65.9042L50.9176 73.3302L70.0123 60.0583C70.0123 60.0583 65.5937 56.5823 64.1734 56.5823C62.7531 56.5823 43.9741 65.9042 43.9741 65.9042Z" fill="#A0616A"/>
<path d="M81.5322 26.8783C81.5322 26.8783 83.5837 12.5003 87.2133 13.6063C90.8428 14.7123 85.1618 28.9323 85.1618 28.9323L81.5322 26.8783Z" fill="#A0616A"/>
<path d="M55.9678 34.4623C55.9678 34.4623 49.0818 33.3563 46.5281 34.4623C43.9745 35.5682 36.2605 36.4482 35.3044 35.2182C34.3482 33.9883 25.8267 38.0962 25.8267 39.8342C25.8267 41.5722 44.2901 67.8001 44.2901 67.8001C44.2901 67.8001 63.3847 62.4281 65.9096 56.7401C65.9096 56.7401 63.7003 55.1601 63.7003 53.8961C63.7003 52.6321 62.5957 51.3681 62.5957 51.3681C62.5957 51.3681 63.8581 48.2082 61.6488 45.3642C59.4395 42.5202 55.9678 34.4623 55.9678 34.4623Z" fill="#D0CDE1"/>
<path d="M53.916 34.9364L55.9675 34.4624C55.9675 34.4624 61.0173 35.7264 64.4891 39.9923C67.9608 44.2583 73.9575 45.6803 73.9575 45.6803L81.2166 25.9304L87.2133 27.9844C87.2133 27.9844 82.4791 53.1062 77.1136 53.4222C71.7482 53.7382 58.4924 47.8923 58.4924 47.8923L53.916 34.9364Z" fill="#D0CDE1"/>
<path d="M28.3515 38.2544C28.3515 38.2544 25.0376 38.4124 25.0376 41.2564C25.0376 44.1004 25.511 53.8963 28.3515 58.1623C31.1921 62.4283 33.717 72.0662 33.8748 72.2242C34.0326 72.3822 37.0309 92.2901 37.0309 92.2901L42.0807 91.8161L41.1339 67.0102L36.2419 54.3703L28.3515 38.2544Z" fill="#D0CDE1"/>
<path d="M84.09 77.9229C80.0367 82.9639 74.7579 86.8777 68.7597 89.289L67.9618 87.5497L64.8612 90.6102C58.255 92.4396 51.2768 92.4405 44.6701 90.6128L43.3428 89.7624L50.4445 81.5457C50.4445 81.5457 50.6025 77.4379 50.4445 76.8063C50.2864 76.1746 48.2152 70.4395 48.2152 70.4395C55.412 69.9828 65.7029 60.8423 68.0864 58.6386C68.414 58.335 68.5926 58.1626 68.5926 58.1626C81.8478 60.0576 83.7418 75.5417 83.7418 75.5417L84.09 77.9229Z" fill="#2F2E41"/>
<path d="M37.9282 24.0568C38.354 24.0568 38.6991 23.3368 38.6991 22.4487C38.6991 21.5605 38.354 20.8406 37.9282 20.8406C37.5024 20.8406 37.1572 21.5605 37.1572 22.4487C37.1572 23.3368 37.5024 24.0568 37.9282 24.0568Z" fill="#A0616A"/>
<path d="M33.0454 12.3497C35.813 12.3497 38.0565 10.1034 38.0565 7.33246C38.0565 4.56149 35.813 2.31519 33.0454 2.31519C30.2778 2.31519 28.0342 4.56149 28.0342 7.33246C28.0342 10.1034 30.2778 12.3497 33.0454 12.3497Z" fill="#2F2E41"/>
<path d="M27.7768 5.01679C27.777 3.7865 28.2287 2.59916 29.046 1.68046C29.8633 0.761758 30.9892 0.175742 32.2098 0.0337998C31.5072 -0.0488654 30.7951 0.0183506 30.1203 0.231025C29.4455 0.4437 28.8233 0.797013 28.2947 1.26772C27.7661 1.73843 27.343 2.31587 27.0533 2.96204C26.7636 3.60822 26.6138 4.30849 26.6138 5.01679C26.6138 5.72509 26.7636 6.42536 27.0533 7.07154C27.343 7.71771 27.7661 8.29515 28.2947 8.76586C28.8233 9.23657 29.4455 9.58988 30.1203 9.80256C30.7951 10.0152 31.5072 10.0824 32.2098 9.99978C30.9892 9.85784 29.8633 9.27182 29.046 8.35312C28.2287 7.43442 27.777 6.24708 27.7768 5.01679Z" fill="#2F2E41"/>
<path d="M86.7549 2.9585H84.9561V21.8698H86.7549V2.9585Z" fill="#2F2E41"/>
<path d="M36.2578 14.794C36.2578 14.794 38.5707 19.6826 41.3975 19.8113C44.2243 19.9399 54.7606 17.8815 54.7606 17.8815L51.2913 10.6772L42.0399 11.8351L36.2578 14.794Z" fill="#2F2E41"/>
</g>
<defs>
<clipPath id="clip0_157_275">
<rect width="109" height="101" fill="white" transform="translate(0 -0.000488281)"/>
</clipPath>
</defs>
</svg>
