<svg width="136" height="136" viewBox="0 0 136 136" fill="none" xmlns="http://www.w3.org/2000/svg">
<path d="M77.9979 74.7971H64.1997V133.481L67.708 134.762C69.9107 135.566 72.3128 135.645 74.5638 134.988L77.9979 133.985V74.7971Z" fill="url(#paint0_linear_157_199)"/>
<path d="M77.0896 74.7971H65.47V133.985L68.3197 134.461C70.4285 134.813 72.5773 134.856 74.6985 134.589L77.0896 134.287V74.7971Z" fill="#ECEFF1"/>
<path d="M110.098 27.113H47.9561C45.82 27.1679 43.7149 27.6399 41.7578 28.5029C35.4409 31.3201 31.7642 35.7417 30.7259 45.5475V68.202L14.2597 68.0267C10.9483 68.0267 9.73755 73.2654 9.73755 76.8064H120.967V38.7341C120.967 32.3163 116.107 27.113 110.098 27.113Z" fill="url(#paint1_linear_157_199)"/>
<path d="M50.218 29.4878H111.789C113.789 29.4878 115.708 30.2874 117.122 31.7107C118.537 33.134 119.331 35.0644 119.331 37.0772V74.7969H50.218V29.4878Z" fill="white"/>
<path d="M48.7627 29.4878C53.1927 29.4878 57.4413 31.2586 60.5739 34.4106C63.7064 37.5627 65.4662 41.8377 65.4662 46.2954V66.5712C65.4662 68.7528 64.605 70.845 63.0719 72.3876C61.5389 73.9302 59.4596 74.7969 57.2915 74.7969H40.2338C38.0657 74.7969 35.9865 73.9302 34.4534 72.3876C32.9203 70.845 32.0591 68.7528 32.0591 66.5712V46.2954C32.0591 41.8377 33.8189 37.5627 36.9514 34.4106C40.084 31.2586 44.3326 29.4878 48.7627 29.4878V29.4878Z" fill="white"/>
<path opacity="0.2" d="M48.7627 29.4878C53.1927 29.4878 57.4413 31.2586 60.5739 34.4106C63.7064 37.5627 65.4662 41.8377 65.4662 46.2954V66.5712C65.4662 68.7528 64.605 70.845 63.0719 72.3876C61.5389 73.9302 59.4596 74.7969 57.2915 74.7969H40.2338C38.0657 74.7969 35.9865 73.9302 34.4534 72.3876C32.9203 70.845 32.0591 68.7528 32.0591 66.5712V46.2954C32.0591 41.8377 33.8189 37.5627 36.9514 34.4106C40.084 31.2586 44.3326 29.4878 48.7627 29.4878V29.4878Z" fill="black"/>
<path d="M93.2498 23.46H84.6264H79.4517V33.7788V46.4783H85.7148V33.7788H93.2498V23.46Z" fill="url(#paint2_linear_157_199)"/>
<path d="M92.1594 23.46H84.8969H80.5398V32.9598V44.6518H84.8969V32.9598H92.1594V23.46Z" fill="#FFCC80"/>
<path d="M32.1942 38.1377L30.4763 52.3386L53.4404 55.1513L55.1583 40.9503L32.1942 38.1377Z" fill="url(#paint3_linear_157_199)"/>
<path d="M32.4332 38.5251L30.8301 51.7778L53.0156 54.4951L54.6188 41.2424L32.4332 38.5251Z" fill="#FAF8E4"/>
<g opacity="0.6">
<path opacity="0.6" d="M33.0155 41.758L35.8389 42.1038L36.0931 40.0018L33.2698 39.656L33.0155 41.758Z" fill="white"/>
<path opacity="0.6" d="M34.8363 46.13L45.675 47.4575L45.7575 46.776L34.9187 45.4485L34.8363 46.13Z" fill="white"/>
<path opacity="0.6" d="M37.5937 47.9671L45.4968 48.9351L45.5517 48.4813L37.6485 47.5133L37.5937 47.9671Z" fill="white"/>
</g>
<path d="M41.5511 41.2614L39.8333 55.4624L62.7973 58.275L64.5152 44.0741L41.5511 41.2614Z" fill="url(#paint4_linear_157_199)"/>
<path d="M41.7904 41.6508L40.1873 54.9036L62.3728 57.6209L63.976 44.3681L41.7904 41.6508Z" fill="#FAF8E4"/>
<g opacity="0.6">
<path opacity="0.6" d="M42.3737 44.8839L45.197 45.2297L45.4513 43.1278L42.6279 42.782L42.3737 44.8839Z" fill="white"/>
<path opacity="0.6" d="M44.1944 49.256L55.0332 50.5835L55.1156 49.902L44.2768 48.5744L44.1944 49.256Z" fill="white"/>
<path opacity="0.6" d="M46.9482 51.0928L54.8513 52.0608L54.9062 51.6071L47.0031 50.6391L46.9482 51.0928Z" fill="white"/>
</g>
<path d="M21.6701 42.5965L19.3416 61.8459L50.4683 65.6583L52.7969 46.4089L21.6701 42.5965Z" fill="url(#paint5_linear_157_199)"/>
<path d="M21.9958 43.1187L19.8225 61.0847L49.8947 64.7679L52.068 46.8019L21.9958 43.1187Z" fill="white"/>
<g opacity="0.6">
<path opacity="0.6" d="M22.7847 47.5023L26.6111 47.9709L26.9556 45.1226L23.1292 44.654L22.7847 47.5023Z" fill="white"/>
<path opacity="0.6" d="M25.25 53.4307L39.9429 55.2302L40.0547 54.3061L25.3618 52.5065L25.25 53.4307Z" fill="white"/>
<path opacity="0.6" d="M28.9885 55.9195L39.7021 57.2317L39.7768 56.615L29.0631 55.3028L28.9885 55.9195Z" fill="white"/>
</g>
<path d="M34.354 46.8306L32.0254 66.0801L63.1521 69.8925L65.4807 50.643L34.354 46.8306Z" fill="url(#paint6_linear_157_199)"/>
<path d="M34.6777 47.3562L32.5044 65.3223L62.5766 69.0055L64.7499 51.0395L34.6777 47.3562Z" fill="white"/>
<g opacity="0.6">
<path opacity="0.6" d="M35.4677 51.7394L39.2942 52.208L39.6387 49.3597L35.8123 48.891L35.4677 51.7394Z" fill="white"/>
<path opacity="0.6" d="M37.9331 57.6677L52.626 59.4673L52.7378 58.5431L38.0449 56.7436L37.9331 57.6677Z" fill="white"/>
<path opacity="0.6" d="M41.6714 60.1566L52.385 61.4688L52.4596 60.852L41.746 59.5399L41.6714 60.1566Z" fill="white"/>
</g>
<path opacity="0.2" d="M48.5847 29.6707C46.3995 29.6689 44.2355 30.1 42.2158 30.9393C43.0025 30.8257 43.7962 30.7684 44.5909 30.7677V30.7677C46.7845 30.7677 48.9565 31.2024 50.9831 32.0471C53.0097 32.8917 54.8511 34.1298 56.4021 35.6905C57.9532 37.2512 59.1836 39.1041 60.023 41.1433C60.8625 43.1825 61.2945 45.3681 61.2945 47.5753V74.254H65.2882V46.4783C65.2882 42.0206 63.5284 37.7455 60.3959 34.5935C57.2633 31.4415 53.0147 29.6707 48.5847 29.6707Z" fill="black"/>
<path d="M17.5378 68.95H65.47V74.7969H11.7271C11.7271 73.2462 12.3393 71.759 13.429 70.6625C14.5187 69.566 15.9967 68.95 17.5378 68.95V68.95Z" fill="white"/>
<path opacity="0.2" d="M17.5378 68.95H65.47V74.7969H11.7271C11.7271 73.2462 12.3393 71.759 13.429 70.6625C14.5187 69.566 15.9967 68.95 17.5378 68.95V68.95Z" fill="white"/>
<path d="M121.883 13.1672L121.332 13.4378L121.395 13.324L121.347 13.3389L121.415 13.2885L128.836 -0.000488281L132.629 3.25506L135.885 6.28674L134.95 6.74569L136 8.60947L121.883 13.1672Z" fill="url(#paint7_linear_157_199)"/>
<path d="M132.255 3.60205L135.229 6.37813L121.746 13.1224L128.921 3.86884L132.255 3.60205Z" fill="white"/>
<path opacity="0.2" d="M132.255 3.60205L135.229 6.37813L121.746 13.1224L128.921 3.86884L132.255 3.60205Z" fill="black"/>
<path d="M128.784 0.624512L121.746 13.1225L132.255 3.60208L128.784 0.624512Z" fill="white"/>
<path d="M135.316 8.52556L121.76 13.0311L133.091 4.52002L135.316 8.52556Z" fill="white"/>
<path d="M22.5586 16.2249L23.4448 16.3629L23.3076 16.2323H23.3836L23.265 16.1913L7.16028 0.823975L3.25185 7.03098L-0.000244141 12.6932L1.50528 12.9283L0.837808 15.9954L22.5586 16.2249Z" fill="url(#paint8_linear_157_199)"/>
<path d="M3.92681 7.35398L0.956543 12.5349L22.7311 16.102L8.70668 6.27563L3.92681 7.35398Z" fill="white"/>
<path opacity="0.2" d="M3.92681 7.35398L0.956543 12.5349L22.7311 16.102L8.70668 6.27563L3.92681 7.35398Z" fill="black"/>
<path d="M7.50331 1.67676L22.731 16.1019L3.92676 7.35392L7.50331 1.67676Z" fill="white"/>
<path d="M1.75928 15.5794L22.6717 15.9824L3.14985 9.00488L1.75928 15.5794Z" fill="white"/>
<defs>
<linearGradient id="paint0_linear_157_199" x1="71.0988" y1="136" x2="71.0988" y2="74.7971" gradientUnits="userSpaceOnUse">
<stop stop-color="#808080" stop-opacity="0.25"/>
<stop offset="0.54" stop-color="#808080" stop-opacity="0.12"/>
<stop offset="1" stop-color="#808080" stop-opacity="0.1"/>
</linearGradient>
<linearGradient id="paint1_linear_157_199" x1="26511.2" y1="18007.2" x2="93243.2" y2="18007.2" gradientUnits="userSpaceOnUse">
<stop stop-color="#808080" stop-opacity="0.25"/>
<stop offset="0.54" stop-color="#808080" stop-opacity="0.12"/>
<stop offset="1" stop-color="#808080" stop-opacity="0.1"/>
</linearGradient>
<linearGradient id="paint2_linear_157_199" x1="6505.68" y1="5758.02" x2="6505.68" y2="2918.02" gradientUnits="userSpaceOnUse">
<stop stop-color="#808080" stop-opacity="0.25"/>
<stop offset="0.54" stop-color="#808080" stop-opacity="0.12"/>
<stop offset="1" stop-color="#808080" stop-opacity="0.1"/>
</linearGradient>
<linearGradient id="paint3_linear_157_199" x1="-4776.02" y1="8410.46" x2="-4559.05" y2="6638.94" gradientUnits="userSpaceOnUse">
<stop stop-color="#808080" stop-opacity="0.25"/>
<stop offset="0.54" stop-color="#808080" stop-opacity="0.12"/>
<stop offset="1" stop-color="#808080" stop-opacity="0.1"/>
</linearGradient>
<linearGradient id="paint4_linear_157_199" x1="-4079.55" y1="8745.85" x2="-3862.57" y2="6974.32" gradientUnits="userSpaceOnUse">
<stop stop-color="#808080" stop-opacity="0.25"/>
<stop offset="0.54" stop-color="#808080" stop-opacity="0.12"/>
<stop offset="1" stop-color="#808080" stop-opacity="0.1"/>
</linearGradient>
<linearGradient id="paint5_linear_157_199" x1="-7290.75" y1="13131.9" x2="-6892.09" y2="9877.02" gradientUnits="userSpaceOnUse">
<stop stop-color="#808080" stop-opacity="0.25"/>
<stop offset="0.54" stop-color="#808080" stop-opacity="0.12"/>
<stop offset="1" stop-color="#808080" stop-opacity="0.1"/>
</linearGradient>
<linearGradient id="paint6_linear_157_199" x1="-6006.35" y1="13747" x2="-5607.7" y2="10492.2" gradientUnits="userSpaceOnUse">
<stop stop-color="#808080" stop-opacity="0.25"/>
<stop offset="0.54" stop-color="#808080" stop-opacity="0.12"/>
<stop offset="1" stop-color="#808080" stop-opacity="0.1"/>
</linearGradient>
<linearGradient id="paint7_linear_157_199" x1="-2125.56" y1="10261.7" x2="-2731.11" y2="9746.96" gradientUnits="userSpaceOnUse">
<stop stop-color="#808080" stop-opacity="0.25"/>
<stop offset="0.54" stop-color="#808080" stop-opacity="0.12"/>
<stop offset="1" stop-color="#808080" stop-opacity="0.1"/>
</linearGradient>
<linearGradient id="paint8_linear_157_199" x1="911.419" y1="11835.8" x2="1636.58" y2="10698.5" gradientUnits="userSpaceOnUse">
<stop stop-color="#808080" stop-opacity="0.25"/>
<stop offset="0.54" stop-color="#808080" stop-opacity="0.12"/>
<stop offset="1" stop-color="#808080" stop-opacity="0.1"/>
</linearGradient>
</defs>
</svg>
