<svg width="160" height="80" viewBox="0 0 160 80" fill="none" xmlns="http://www.w3.org/2000/svg">
<g clip-path="url(#clip0_157_174)">
<path d="M124.983 15.0273H85.7488V14.2192H67.9587V15.0273H28.5631C28.2145 15.0273 27.8694 15.0959 27.5475 15.2291C27.2255 15.3624 26.9329 15.5578 26.6865 15.804C26.44 16.0503 26.2446 16.3426 26.1112 16.6644C25.9778 16.9861 25.9092 17.3309 25.9092 17.6792V71.3627C25.9092 72.0661 26.1888 72.7406 26.6865 73.2379C27.1842 73.7352 27.8592 74.0146 28.5631 74.0146H124.983C125.687 74.0146 126.362 73.7352 126.859 73.2379C127.357 72.7406 127.637 72.066 127.637 71.3627V17.6792C127.637 17.3309 127.568 16.9861 127.435 16.6644C127.301 16.3426 127.106 16.0503 126.859 15.804C126.613 15.5578 126.32 15.3624 125.998 15.2291C125.676 15.0959 125.331 15.0273 124.983 15.0273Z" fill="white"/>
<path opacity="0.1" d="M124.079 19.7141H29.4673V73.0451H124.079V19.7141Z" fill="#1890FF"/>
<path d="M76.6921 18.2594C77.228 18.2594 77.6624 17.8252 77.6624 17.2897C77.6624 16.7542 77.228 16.3201 76.6921 16.3201C76.1561 16.3201 75.7217 16.7542 75.7217 17.2897C75.7217 17.8252 76.1561 18.2594 76.6921 18.2594Z" fill="white"/>
<path d="M130.293 72.0754H121.06V71.4106C121.06 71.3933 121.056 71.3762 121.05 71.3602C121.043 71.3442 121.033 71.3296 121.021 71.3174C121.009 71.3052 120.994 71.2955 120.978 71.2888C120.962 71.2822 120.945 71.2788 120.928 71.2788H117.762C117.745 71.2788 117.728 71.2822 117.712 71.2888C117.696 71.2955 117.681 71.3052 117.669 71.3174C117.657 71.3296 117.647 71.3442 117.64 71.3602C117.634 71.3762 117.63 71.3933 117.63 71.4106V72.0754H115.652V71.4106C115.652 71.3933 115.648 71.3762 115.642 71.3602C115.635 71.3442 115.625 71.3296 115.613 71.3174C115.601 71.3052 115.586 71.2955 115.57 71.2888C115.554 71.2822 115.537 71.2788 115.52 71.2788H112.354C112.337 71.2788 112.32 71.2822 112.304 71.2888C112.288 71.2955 112.273 71.3052 112.261 71.3174C112.249 71.3296 112.239 71.3442 112.232 71.3602C112.226 71.3762 112.222 71.3933 112.222 71.4106V72.0754H110.244V71.4106C110.244 71.3933 110.24 71.3762 110.233 71.3602C110.227 71.3442 110.217 71.3296 110.205 71.3174C110.193 71.3052 110.178 71.2955 110.162 71.2888C110.146 71.2822 110.129 71.2788 110.112 71.2788H106.946C106.929 71.2788 106.911 71.2822 106.895 71.2888C106.879 71.2955 106.865 71.3052 106.853 71.3174C106.84 71.3296 106.831 71.3442 106.824 71.3602C106.817 71.3762 106.814 71.3933 106.814 71.4106V72.0754H104.835V71.4106C104.835 71.3933 104.832 71.3762 104.825 71.3602C104.819 71.3442 104.809 71.3296 104.797 71.3174C104.784 71.3052 104.77 71.2955 104.754 71.2888C104.738 71.2822 104.721 71.2788 104.703 71.2788H101.538C101.52 71.2788 101.503 71.2822 101.487 71.2888C101.471 71.2955 101.457 71.3052 101.444 71.3174C101.432 71.3296 101.422 71.3442 101.416 71.3602C101.409 71.3762 101.406 71.3933 101.406 71.4106V72.0754H99.4272V71.4106C99.4272 71.3933 99.4238 71.3762 99.4171 71.3602C99.4105 71.3442 99.4008 71.3296 99.3886 71.3174C99.3763 71.3052 99.3618 71.2955 99.3458 71.2888C99.3298 71.2822 99.3126 71.2788 99.2953 71.2788H96.1295C96.1122 71.2788 96.0951 71.2822 96.0791 71.2888C96.0631 71.2955 96.0485 71.3052 96.0363 71.3174C96.024 71.3296 96.0143 71.3442 96.0077 71.3602C96.001 71.3762 95.9976 71.3933 95.9976 71.4106V72.0754H94.019V71.4106C94.019 71.3933 94.0156 71.3762 94.009 71.3602C94.0024 71.3442 93.9926 71.3296 93.9804 71.3174C93.9681 71.3052 93.9536 71.2955 93.9376 71.2888C93.9216 71.2822 93.9044 71.2788 93.8871 71.2788H90.7214C90.704 71.2788 90.6869 71.2822 90.6709 71.2888C90.6549 71.2955 90.6403 71.3052 90.6281 71.3174C90.6158 71.3296 90.6061 71.3442 90.5995 71.3602C90.5929 71.3762 90.5895 71.3933 90.5895 71.4106V72.0754H88.6109V71.4106C88.6109 71.3933 88.6075 71.3762 88.6008 71.3602C88.5942 71.3442 88.5845 71.3296 88.5722 71.3174C88.56 71.3052 88.5454 71.2955 88.5294 71.2888C88.5134 71.2822 88.4963 71.2788 88.479 71.2788H63.6805C63.6632 71.2788 63.6461 71.2822 63.6301 71.2888C63.6141 71.2955 63.5995 71.3052 63.5873 71.3174C63.575 71.3296 63.5653 71.3442 63.5587 71.3602C63.5521 71.3762 63.5486 71.3933 63.5486 71.4106V72.0754H61.57V71.4106C61.57 71.3933 61.5666 71.3762 61.56 71.3602C61.5534 71.3442 61.5437 71.3296 61.5314 71.3174C61.5192 71.3052 61.5046 71.2955 61.4886 71.2888C61.4726 71.2822 61.4555 71.2788 61.4381 71.2788H58.2724C58.2551 71.2788 58.2379 71.2822 58.2219 71.2888C58.2059 71.2955 58.1914 71.3052 58.1791 71.3174C58.1669 71.3296 58.1571 71.3442 58.1505 71.3602C58.1439 71.3762 58.1405 71.3933 58.1405 71.4106V72.0754H56.1619V71.4106C56.1619 71.3933 56.1585 71.3762 56.1518 71.3602C56.1452 71.3442 56.1355 71.3296 56.1233 71.3174C56.111 71.3052 56.0965 71.2955 56.0805 71.2888C56.0645 71.2822 56.0473 71.2788 56.03 71.2788H52.8642C52.8469 71.2788 52.8297 71.2822 52.8137 71.2888C52.7977 71.2955 52.7832 71.3052 52.7709 71.3174C52.7587 71.3296 52.749 71.3442 52.7424 71.3602C52.7357 71.3762 52.7323 71.3933 52.7323 71.4106V72.0754H50.7537V71.4106C50.7537 71.3933 50.7503 71.3762 50.7437 71.3602C50.7371 71.3442 50.7273 71.3296 50.7151 71.3174C50.7028 71.3052 50.6883 71.2955 50.6723 71.2888C50.6563 71.2822 50.6391 71.2788 50.6218 71.2788H47.4561C47.4387 71.2788 47.4216 71.2822 47.4056 71.2888C47.3896 71.2955 47.375 71.3052 47.3628 71.3174C47.3505 71.3296 47.3408 71.3442 47.3342 71.3602C47.3276 71.3762 47.3242 71.3933 47.3242 71.4106V72.0754H45.3456V71.4106C45.3456 71.3933 45.3421 71.3762 45.3355 71.3602C45.3289 71.3442 45.3192 71.3296 45.3069 71.3174C45.2947 71.3052 45.2801 71.2955 45.2641 71.2888C45.2481 71.2822 45.231 71.2788 45.2136 71.2788H42.0479C42.0306 71.2788 42.0134 71.2822 41.9974 71.2888C41.9814 71.2955 41.9669 71.3052 41.9546 71.3174C41.9424 71.3296 41.9327 71.3442 41.926 71.3602C41.9194 71.3762 41.916 71.3933 41.916 71.4106V72.0754H39.9374V71.4106C39.9374 71.3933 39.934 71.3762 39.9274 71.3602C39.9207 71.3442 39.911 71.3296 39.8988 71.3174C39.8865 71.3052 39.872 71.2955 39.856 71.2888C39.84 71.2822 39.8228 71.2788 39.8055 71.2788H36.6397C36.6224 71.2788 36.6053 71.2822 36.5893 71.2888C36.5732 71.2955 36.5587 71.3052 36.5465 71.3174C36.5342 71.3296 36.5245 71.3442 36.5179 71.3602C36.5112 71.3762 36.5078 71.3933 36.5078 71.4106V72.0754H34.5292V71.4106C34.5292 71.3933 34.5258 71.3762 34.5192 71.3602C34.5126 71.3442 34.5028 71.3296 34.4906 71.3174C34.4783 71.3052 34.4638 71.2955 34.4478 71.2888C34.4318 71.2822 34.4146 71.2788 34.3973 71.2788H31.2316C31.2142 71.2788 31.1971 71.2822 31.1811 71.2888C31.1651 71.2955 31.1505 71.3052 31.1383 71.3174C31.126 71.3296 31.1163 71.3442 31.1097 71.3602C31.1031 71.3762 31.0997 71.3933 31.0997 71.4106V72.0754H25.032C24.1924 72.0754 23.3871 72.4087 22.7934 73.0019C22.1997 73.5952 21.8662 74.3998 21.8662 75.2388V76.6692C21.8662 77.5082 22.1997 78.3128 22.7934 78.9061C23.3871 79.4993 24.1924 79.8326 25.032 79.8326H130.293C131.133 79.8326 131.938 79.4993 132.532 78.9061C133.126 78.3128 133.459 77.5082 133.459 76.6692V75.2388C133.459 74.3998 133.126 73.5952 132.532 73.0019C131.938 72.4087 131.133 72.0754 130.293 72.0754V72.0754Z" fill="#CCCCCC"/>
<path d="M95.9412 25.7673H57.6377V66.0015H95.9412V25.7673Z" fill="white"/>
<path d="M77.8965 24.0971C77.8965 24.0971 74.6304 22.9315 72.5308 27.5939C70.4311 32.2563 67.165 37.385 67.165 37.385L69.0314 37.8512C69.0314 37.8512 69.498 34.5875 70.6644 34.1213L70.1979 38.3174C70.1979 38.3174 84.1954 43.213 90.4943 37.8512L90.261 36.2194C90.261 36.2194 91.1942 36.4525 91.1942 37.8512L91.8941 37.1518C91.8941 37.1518 91.1942 35.7531 89.0946 33.8882C87.7165 32.6641 87.2429 30.3353 87.0801 28.8793C86.9582 27.6635 86.4714 26.5129 85.6836 25.5785C84.2883 23.9626 81.7458 22.2451 77.8965 24.0971Z" fill="#2F2E41"/>
<path d="M59.8485 28.496L58.4913 14.3312C58.4913 14.3312 55.7769 6.64602 59.8485 7.24878C63.9202 7.85154 61.5074 13.7284 61.5074 13.7284L63.7694 28.496H59.8485Z" fill="#FFB9B9"/>
<path d="M79.6036 39.0442C82.6019 39.0442 85.0325 36.6155 85.0325 33.6194C85.0325 30.6234 82.6019 28.1946 79.6036 28.1946C76.6054 28.1946 74.1748 30.6234 74.1748 33.6194C74.1748 36.6155 76.6054 39.0442 79.6036 39.0442Z" fill="#FFB9B9"/>
<path d="M75.6825 36.0305C75.6825 36.0305 75.3809 42.2088 73.8729 42.6609C72.3649 43.1129 68.1425 48.0857 70.1029 49.5926C72.0633 51.0995 83.3734 50.0447 83.3734 50.0447L82.3178 42.2088C82.3178 42.2088 79.905 40.5512 81.8654 37.6881L75.6825 36.0305Z" fill="#FFB9B9"/>
<path d="M87.003 66.3028H65.6797C65.7566 64.9391 65.9496 63.0133 66.1969 60.8961C66.2723 60.2542 66.3523 59.5926 66.4352 58.9251C67.1666 53.0406 68.1423 46.5791 68.1423 46.5791L68.3986 45.9869L71.0075 39.9487L71.0346 39.9593L74.4759 41.3049L74.5981 41.8836L75.5315 46.2777L81.5711 41.4059L87.1432 40.5349L87.5202 40.4761L88.1988 46.8805C88.1988 46.8805 88.1687 48.312 88.137 50.3508C88.1008 52.6941 88.0616 55.8405 88.0646 58.5363C88.0661 59.8247 88.0767 61.0106 88.1023 61.957C88.1234 62.7541 88.1551 63.3825 88.1988 63.7577C88.2999 64.6121 87.763 65.4997 87.003 66.3028Z" fill="#3F3D56"/>
<path d="M71.1585 40.7019L71.0077 39.7977L66.7853 34.6743L64.3725 26.085L58.4912 28.3453L62.7136 38.7429L68.7457 46.4281L71.1585 40.7019Z" fill="#3F3D56"/>
<path d="M72.4716 34.2682C72.4716 34.2682 74.3379 31.7038 75.971 31.2376C77.604 30.7714 77.8373 28.4402 77.8373 28.4402C77.8373 28.4402 82.0365 33.1026 84.6028 33.3357C87.169 33.5688 84.836 27.7408 84.836 27.7408L80.1702 26.5752L75.7377 27.0414L72.2383 29.3726L72.4716 34.2682Z" fill="#2F2E41"/>
<path d="M87.4961 61.1794L73.0686 61.7512C73.0686 61.7512 65.1184 63.5697 66.1819 59.5963C67.2454 55.623 72.8132 58.6883 72.8132 58.6883L87.7532 58.1264L87.4961 61.1794Z" fill="#FFB9B9"/>
<path d="M85.862 41.5306L87.2192 40.4758C87.2192 40.4758 89.4812 39.2703 89.9336 43.4896C90.386 47.7089 93.7037 61.7231 90.386 61.8738C87.0684 62.0244 78.6235 62.1751 78.6235 62.1751L79.5283 57.5038L86.4652 57.0517L85.862 41.5306Z" fill="#3F3D56"/>
<path opacity="0.15" d="M86.3142 48.0103L85.8618 56.5996L79.2266 57.9558L85.2586 55.5447L86.3142 48.0103Z" fill="black"/>
</g>
<defs>
<clipPath id="clip0_157_174">
<rect width="160" height="80" fill="white" transform="translate(0 -0.000488281)"/>
</clipPath>
</defs>
</svg>
