<svg width="159" height="83" viewBox="0 0 159 83" fill="none" xmlns="http://www.w3.org/2000/svg">
<g clip-path="url(#clip0_157_245)">
<path d="M158.662 60.5C157.829 65.7628 155.249 70.871 150.99 74.1035C146.799 77.2872 141.43 78.4183 136.247 79.3907C130.03 80.5584 123.796 81.6258 117.545 82.5928C116.659 82.7331 115.772 82.8687 114.885 82.9996H78.4766C78.4398 82.9508 78.4009 82.8999 78.3641 82.8491C78.3048 82.7636 78.2454 82.6782 78.1881 82.5928C78.1554 82.5439 78.1226 82.4931 78.0898 82.4422H100.927C101.575 82.4416 102.196 82.1856 102.655 81.7303C103.113 81.2749 103.371 80.6575 103.372 80.0132V49.71C103.52 49.2502 103.657 48.7884 103.782 48.3205C104.364 46.1418 104.743 43.9143 104.913 41.6663C105.036 40.0999 105.073 38.5334 105.046 36.965C104.971 32.6542 104.404 28.3435 103.788 24.0633C103.743 23.748 103.696 23.4306 103.651 23.1153C103.217 20.1411 102.822 16.9045 104.33 14.2986C106.055 11.3163 109.884 10.0733 113.332 10.3784C119.534 10.9297 124.758 15.6514 127.474 21.2234C130.187 26.7934 130.795 33.1282 131.043 39.3126C131.174 42.5919 131.159 46.0177 130.699 49.3072C132.254 45.7715 133.811 42.2359 135.369 38.7002C136.2 36.8144 137.073 34.8676 138.612 33.4883C141.829 30.6016 147.149 31.1834 150.585 33.8118C154.019 36.4421 155.902 40.5983 157.154 44.7218C158.705 49.8219 159.497 55.2372 158.662 60.5Z" fill="#F2F2F2"/>
<path d="M144.941 31.9152C147.191 35.8757 148.223 40.417 148.198 44.949C148.163 49.4423 147.163 53.8763 145.265 57.9543C143.549 61.6365 141.157 64.9686 138.212 67.7798C135.306 70.5848 131.858 72.7745 128.076 74.2165C123.688 75.8515 118.942 76.2998 114.323 75.5157C113.681 75.4061 113.044 75.2732 112.412 75.117C112.028 75.023 111.865 75.6114 112.249 75.7055C117.056 76.89 122.097 76.7458 126.827 75.2887C130.767 74.0286 134.403 71.9725 137.505 69.2495C140.647 66.5191 143.245 63.2267 145.164 59.5433C147.264 55.5106 148.489 51.0846 148.761 46.5515C149.029 41.9515 148.253 37.2696 146.252 33.0969C146.009 32.5913 145.749 32.0947 145.471 31.6072C145.429 31.5402 145.362 31.4923 145.284 31.4735C145.207 31.4548 145.125 31.4666 145.057 31.5066C144.988 31.5465 144.937 31.6115 144.916 31.6877C144.894 31.7639 144.903 31.8455 144.941 31.9152H144.941Z" fill="white"/>
<path d="M112.362 10.2975C114.856 14.868 116.799 19.7148 118.152 24.7376C120.861 34.7976 121.268 45.3327 119.346 55.5698C118.386 60.6845 116.821 65.6683 114.682 70.4172C112.55 75.1261 109.481 80.0875 104.237 81.7363C103.646 81.9215 103.039 82.0563 102.424 82.1392C102.035 82.1923 102.201 82.7805 102.588 82.7277C108.011 81.9876 111.78 77.5081 114.144 72.9419C116.589 68.2172 118.331 63.0865 119.489 57.9064C121.784 47.5706 121.701 36.8529 119.247 26.5532C118.028 21.4222 116.206 16.4516 113.819 11.744C113.519 11.1544 113.21 10.5696 112.892 9.98947C112.703 9.64433 112.173 9.95203 112.362 10.2975V10.2975Z" fill="white"/>
<path d="M86.6908 9.40991H49.9387C49.1928 9.41087 48.4776 9.70588 47.9502 10.2302C47.4227 10.7546 47.126 11.4655 47.125 12.2071V30.514H52.7811C53.1948 30.5128 53.6019 30.6167 53.9639 30.8157C54.3259 31.0147 54.6309 31.3022 54.8499 31.6511L56.8103 34.7535L58.6848 37.7175L59.0367 38.2749L61.1812 41.6661L61.2058 41.7048H89.5045V12.2071C89.5035 11.4655 89.2068 10.7546 88.6793 10.2302C88.1519 9.70588 87.4367 9.41087 86.6908 9.40991Z" fill="#CCCCCC"/>
<path d="M72.1228 15.0063H53.9125C53.4298 15.0063 52.9668 15.197 52.6254 15.5363C52.2841 15.8757 52.0923 16.336 52.0923 16.8159C52.0923 17.2958 52.2841 17.7561 52.6254 18.0954C52.9668 18.4348 53.4298 18.6254 53.9125 18.6254H72.1228C72.6056 18.6254 73.0686 18.4348 73.4099 18.0954C73.7513 17.7561 73.9431 17.2958 73.9431 16.8159C73.9431 16.336 73.7513 15.8757 73.4099 15.5363C73.0686 15.197 72.6056 15.0063 72.1228 15.0063Z" fill="white"/>
<path d="M82.2214 23.8923H54.0783C53.5513 23.8923 53.0459 24.1004 52.6733 24.4709C52.3007 24.8413 52.0913 25.3438 52.0913 25.8677C52.0913 26.3915 52.3007 26.894 52.6733 27.2644C53.0459 27.6349 53.5513 27.843 54.0783 27.843H82.2214C82.7484 27.843 83.2538 27.6349 83.6265 27.2644C83.9991 26.894 84.2084 26.3915 84.2084 25.8677C84.2084 25.3438 83.9991 24.8413 83.6265 24.4709C83.2538 24.1004 82.7484 23.8923 82.2214 23.8923Z" fill="white"/>
<path d="M84.0184 31.9421C83.8585 31.6025 83.6046 31.3152 83.2864 31.1138C82.9682 30.9124 82.5989 30.8053 82.2217 30.8049H54.0786C54.0356 30.8049 53.9946 30.807 53.9517 30.809C54.3189 31.0084 54.6282 31.2985 54.85 31.6512L56.8104 34.7536H82.2217C82.5559 34.7536 82.8846 34.6698 83.1776 34.5099C83.4705 34.35 83.718 34.1191 83.8972 33.8387C84.0764 33.5583 84.1815 33.2374 84.2027 32.9059C84.2239 32.5743 84.1605 32.2428 84.0184 31.9421Z" fill="white"/>
<path d="M84.1879 39.4264C84.1232 38.9534 83.8883 38.5197 83.5268 38.2055C83.1653 37.8914 82.7015 37.718 82.2214 37.7175H58.6846L59.0365 38.2749L61.181 41.6661H82.2214C82.6348 41.667 83.038 41.5381 83.3735 41.2979C83.6311 41.1154 83.8411 40.8744 83.986 40.5948C84.1309 40.3152 84.2064 40.0053 84.2063 39.6908C84.2065 39.6023 84.2003 39.514 84.1879 39.4264Z" fill="white"/>
<path d="M106.653 25.1758L103.788 24.0631L89.5045 18.5216L72.4155 11.8917C71.7199 11.6234 70.9457 11.6401 70.2625 11.9383C69.5794 12.2365 69.043 12.7919 68.771 13.4826L68.1735 15.0063L66.7513 18.6253L64.6845 23.8922L63.1334 27.8428L61.971 30.8048L60.4199 34.7534L59.2555 37.7174L59.2229 37.8029L59.0366 38.2748L61.1812 41.666L61.2058 41.7047H100.927C101.292 41.7043 101.652 41.7853 101.981 41.9416C102.31 42.098 102.599 42.3256 102.828 42.6079L102.996 42.1848L105.046 36.9647L108.251 28.801C108.521 28.1095 108.505 27.3396 108.205 26.66C107.906 25.9805 107.347 25.4467 106.653 25.1758Z" fill="white"/>
<path d="M91.0352 25.1232L89.5045 24.5291L74.0711 18.5421C73.6211 18.369 73.1204 18.3798 72.6784 18.5723C72.2364 18.7648 71.8888 19.1232 71.7117 19.5695C71.5373 20.0171 71.5483 20.5152 71.7423 20.9547C71.9364 21.3943 72.2977 21.7396 72.7471 21.915L77.8446 23.8924L84.1493 26.3377L89.5045 28.4167L89.7112 28.4961C90.1609 28.6696 90.6615 28.6587 91.1031 28.4657C91.5447 28.2727 91.8913 27.9134 92.0666 27.4666C92.242 27.0198 92.2319 26.5221 92.0385 26.0828C91.8451 25.6434 91.4843 25.2983 91.0352 25.1232Z" fill="white"/>
<path d="M97.1905 37.0525L89.5045 34.0702L84.0183 31.9423L81.0878 30.8051L73.4551 27.8431L70.9749 26.8809C70.5122 26.7013 69.9987 26.7005 69.5355 26.8786C69.0723 27.0567 68.6929 27.4008 68.4722 27.8431C68.4478 27.894 68.4232 27.9469 68.4027 28.0018C68.3078 28.2433 68.2617 28.501 68.267 28.7602C68.2723 29.0195 68.329 29.2751 68.4337 29.5126C68.5384 29.75 68.6891 29.9647 68.8773 30.1442C69.0654 30.3237 69.2873 30.4647 69.5303 30.5589L70.1646 30.8051L80.339 34.7537L89.5045 38.3097L95.7458 40.7326C95.9753 40.8217 96.2196 40.8673 96.4661 40.8668C96.9295 40.8677 97.3786 40.7073 97.7357 40.4136C98.0928 40.12 98.3353 39.7114 98.4213 39.2587C98.5073 38.8059 98.4313 38.3376 98.2065 37.9347C97.9817 37.5318 97.6223 37.2197 97.1905 37.0525H97.1905Z" fill="white"/>
<path d="M89.5044 41.4892L89.0112 41.2979L84.188 39.4264L79.7822 37.7175L72.1413 34.7535L68.4456 33.3193C68.2025 33.2248 67.9429 33.1788 67.6819 33.184C67.4209 33.1892 67.1634 33.2455 66.9243 33.3497C66.6852 33.454 66.4691 33.604 66.2883 33.7913C66.1076 33.9786 65.9657 34.1995 65.8709 34.4414C65.7761 34.6832 65.7302 34.9412 65.7358 35.2007C65.7414 35.4602 65.7984 35.7161 65.9035 35.9537C66.0087 36.1913 66.1599 36.4059 66.3485 36.5854C66.5372 36.7648 66.7596 36.9055 67.003 36.9994L68.8529 37.7175L78.0817 41.298L79.0312 41.6662L79.1295 41.7048H90.0589L89.5044 41.4892Z" fill="white"/>
<path d="M70.8355 41.6661L69.886 41.2979L65.9181 39.7579C65.6409 39.65 65.3428 39.6054 65.046 39.6276C64.7491 39.6498 64.4611 39.7381 64.2032 39.886C63.9453 40.0339 63.7242 40.2376 63.5564 40.482C63.3885 40.7264 63.2781 41.0053 63.2333 41.2979C63.2136 41.4196 63.2061 41.5429 63.2108 41.6661C63.2104 41.679 63.2111 41.692 63.2129 41.7048H70.9357L70.8355 41.6661Z" fill="white"/>
<path d="M79.0315 41.6662L78.082 41.298H63.2338C63.2141 41.4197 63.2066 41.543 63.2113 41.6662H61.1814L61.2059 41.7048H79.1297L79.0315 41.6662ZM79.0315 41.6662H61.1813L61.2059 41.7048H79.1297L79.0315 41.6662ZM79.0315 41.6662H61.1813L61.2059 41.7048H79.1297L79.0315 41.6662ZM79.1297 41.7048L79.0315 41.6662H61.1813L61.2059 41.7048H79.1297ZM43.3169 82.4421C42.6692 82.4411 42.0483 82.1849 41.5903 81.7296C41.1323 81.2743 40.8746 80.657 40.8736 80.0131V32.9451C40.8742 32.3008 41.1317 31.6831 41.5897 31.2274C42.0478 30.7717 42.6689 30.5151 43.3169 30.514H47.1251V30.1072H43.3169C42.5605 30.1086 41.8354 30.4081 41.3007 30.9401C40.766 31.472 40.4652 32.193 40.4644 32.9451V80.0131C40.465 80.5572 40.6229 81.0896 40.9193 81.5469C41.2157 82.0042 41.6381 82.3672 42.1362 82.5927H78.1884C78.1557 82.5439 78.1229 82.493 78.0902 82.4421H43.3169ZM102.996 42.1849C102.73 41.9046 102.41 41.6813 102.054 41.5288C101.698 41.3762 101.315 41.2977 100.927 41.298H61.433L59.2231 37.803L59.1698 37.7176L57.2954 34.7536L55.1958 31.4336C54.9385 31.028 54.5822 30.6937 54.16 30.4618C53.7379 30.2299 53.2635 30.1079 52.7812 30.1072H43.3169C42.5605 30.1086 41.8354 30.4081 41.3007 30.9401C40.766 31.472 40.4652 32.193 40.4644 32.9451V80.0132C40.465 80.5572 40.6229 81.0896 40.9193 81.5469C41.2157 82.0043 41.6381 82.3672 42.1362 82.5927C42.5064 82.7621 42.9093 82.8496 43.3169 82.849H100.927C101.336 82.8496 101.739 82.7621 102.11 82.5927C102.608 82.3672 103.03 82.0042 103.327 81.5469C103.623 81.0896 103.781 80.5572 103.782 80.0132V44.1359C103.782 43.4092 103.501 42.7104 102.996 42.1849ZM103.373 80.0131C103.372 80.6574 103.113 81.2749 102.655 81.7302C102.197 82.1855 101.575 82.4416 100.927 82.4421H43.3169C42.6692 82.4411 42.0483 82.1849 41.5903 81.7296C41.1323 81.2743 40.8746 80.657 40.8736 80.0131V32.9451C40.8742 32.3008 41.1317 31.6831 41.5897 31.2274C42.0478 30.7717 42.6689 30.5151 43.3169 30.514H52.7812C53.1949 30.5129 53.602 30.6168 53.964 30.8158C54.3261 31.0148 54.631 31.3023 54.85 31.6512L56.8104 34.7536L58.6849 37.7176L59.0368 38.275L61.1814 41.6662L61.2059 41.7048H100.927C101.576 41.7054 102.197 41.9617 102.656 42.4175C103.114 42.8733 103.372 43.4913 103.373 44.1358V80.0131ZM79.0315 41.6662H61.1814L61.2059 41.7048H79.1297L79.0315 41.6662ZM79.0315 41.6662H61.1814L61.2059 41.7048H79.1297L79.0315 41.6662ZM79.0315 41.6662H61.1814L61.2059 41.7048H79.1297L79.0315 41.6662ZM79.0315 41.6662L78.082 41.298H61.433L59.2231 37.803L59.0368 38.275L61.1814 41.6662L61.2059 41.7048H79.1297L79.0315 41.6662Z" fill="white" stroke="white" stroke-width="2"/>
<path d="M32.1128 58.541L30.9407 60.9774L20.9307 57.6423L22.6604 54.0466L32.1128 58.541Z" fill="#FFB8B8"/>
<path d="M29.2944 62.611L31.6638 57.6863L34.6395 59.1013L30.9557 66.7579L30.7282 66.6497C29.9993 66.3032 29.4388 65.683 29.1699 64.9256C28.901 64.1681 28.9458 63.3356 29.2944 62.611Z" fill="#2F2E41"/>
<path d="M34.4723 80.2971L31.7575 80.206L31.6431 69.7L34.8257 69.8867L34.4723 80.2971Z" fill="#FFB8B8"/>
<path d="M29.592 79.3614L35.08 79.5456L34.9687 82.8229L26.4361 82.5366L26.4446 82.286C26.4719 81.4833 26.8188 80.7242 27.409 80.1757C27.9993 79.6273 28.7845 79.3343 29.592 79.3614Z" fill="#2F2E41"/>
<path d="M38.8445 36.3282C38.8445 36.3282 30.5353 34.2356 26.7685 37.3195L24.6636 43.3771L16.2437 55.272L28.4304 62.5411L30.6461 57.0342L25.3283 54.3909L31.754 48.884L30.6461 77.9604L34.8561 78.6213C34.8561 78.6213 44.1623 42.7162 38.8445 36.3282Z" fill="#2F2E41"/>
<path d="M26.2383 38.2154L26.3395 38.0364C27.4071 36.1496 27.2341 33.0772 26.9011 30.832C26.6221 28.9515 26.6305 25.6375 26.6866 23.1884C26.7005 22.3617 26.9971 21.5644 27.5275 20.9277C28.0579 20.2909 28.7906 19.8527 29.605 19.6851C32.1327 19.1621 35.2359 19.0513 36.8608 19.0318L36.8621 19.1419L36.8608 19.0318C37.3022 19.03 37.7268 19.2003 38.0434 19.5062C38.36 19.8121 38.5434 20.2292 38.5542 20.6679C38.6036 23.3052 38.5883 28.1145 37.9299 30.6948C36.9528 34.5244 38.4807 37.1269 38.4963 37.1527L38.5885 37.3059L26.2383 38.2154Z" fill="white"/>
<path d="M21.9639 48.7771C22.2344 48.6483 22.4732 48.4622 22.6635 48.2317C22.8538 48.0013 22.9909 47.7321 23.0652 47.4433C23.1396 47.1545 23.1493 46.8529 23.0938 46.56C23.0382 46.267 22.9187 45.9897 22.7437 45.7476L27.433 25.6448H23.8878L19.7492 45.3514C19.3596 45.6706 19.1013 46.1209 19.0233 46.6168C18.9453 47.1127 19.053 47.6199 19.326 48.0422C19.599 48.4644 20.0183 48.7725 20.5045 48.9079C20.9907 49.0434 21.5099 48.9968 21.9639 48.7771Z" fill="#FFB8B8"/>
<path d="M50.4771 28.9889L42.6514 21.6296L40.5364 24.5733L45.824 29.1991L38.8896 34.6736C38.8395 34.6702 38.7896 34.666 38.7386 34.666C38.3119 34.6656 37.8941 34.7874 37.5352 35.0169C37.1763 35.2463 36.8915 35.5737 36.7148 35.9599C36.5382 36.346 36.4772 36.7746 36.5392 37.1943C36.6011 37.6141 36.7834 38.0071 37.0642 38.3266C37.345 38.646 37.7124 38.8782 38.1225 38.9955C38.5326 39.1128 38.968 39.1101 39.3766 38.9878C39.7852 38.8655 40.1497 38.6288 40.4265 38.306C40.7034 37.9831 40.8807 37.5878 40.9375 37.1674L40.9594 37.1892L50.4771 28.9889Z" fill="#FFB8B8"/>
<path d="M29.1071 19.9436C29.1071 19.9436 24.2202 19.1467 23.777 22.8914C23.3339 26.6361 23.1123 26.6361 23.1123 26.6361C23.1123 26.6361 26.6575 25.9753 27.5438 26.8564C28.4302 27.7375 29.1071 19.9436 29.1071 19.9436Z" fill="white"/>
<path d="M36.4072 19.367C36.4072 19.367 40.3956 18.7062 42.1682 20.4684C43.9408 22.2306 44.8271 22.6711 44.8271 22.6711C44.8271 22.6711 40.8388 24.8739 42.3898 26.8564C42.3898 26.8564 38.1798 24.8739 37.5151 25.5347C36.8504 26.1955 36.4072 19.367 36.4072 19.367Z" fill="white"/>
<path d="M32.9086 6.57817C31.6505 5.57932 31.32 3.65154 32.0499 2.22487C32.7798 0.798207 34.4301 -0.0613167 36.0389 0.0028722C37.6476 0.0670611 39.1636 0.985264 40.0956 2.29043C41.4048 4.12384 41.6795 6.67202 43.4204 8.10737C44.9928 9.40379 47.2453 9.36666 49.2855 9.26352C49.9732 9.22875 50.6831 9.18845 51.3002 8.88469C51.9173 8.58093 52.4215 7.94028 52.342 7.26031C52.8545 8.06689 52.5572 9.1978 51.8695 9.86331C51.1819 10.5288 50.2028 10.8076 49.2496 10.9187C47.5681 11.0944 45.8695 10.8316 44.3211 10.1562C42.7727 9.48087 41.428 8.4162 40.4194 7.06709C39.7096 6.09359 39.1618 4.95997 38.1877 4.24721C37.2137 3.53445 35.5896 3.48484 34.9916 4.52998C34.6958 5.0469 34.7249 5.69529 34.4529 6.22496C34.1809 6.75462 33.2977 7.04022 33.0359 6.50555" fill="#2F2E41"/>
<path d="M32.7166 17.2008C36.1071 17.2008 38.8556 14.4684 38.8556 11.0978C38.8556 7.72726 36.1071 4.99487 32.7166 4.99487C29.3262 4.99487 26.5776 7.72726 26.5776 11.0978C26.5776 14.4684 29.3262 17.2008 32.7166 17.2008Z" fill="#2F2E41"/>
<path d="M32.6793 17.6786C35.4551 17.6786 37.7053 15.4415 37.7053 12.6821C37.7053 9.92256 35.4551 7.68555 32.6793 7.68555C29.9035 7.68555 27.6533 9.92256 27.6533 12.6821C27.6533 15.4415 29.9035 17.6786 32.6793 17.6786Z" fill="#FFB8B8"/>
<path d="M28.0967 9.0124C28.7797 9.16093 28.5562 10.3001 29.096 10.7419C29.5829 11.1405 30.2841 10.7306 30.8969 10.5822C31.6706 10.3949 32.4803 10.6693 33.1946 11.0192C33.9089 11.369 34.5977 11.8032 35.3769 11.9662C36.1562 12.1292 37.08 11.9455 37.5168 11.2836C37.9345 10.6508 37.7807 9.79735 37.454 9.11368C37.0477 8.26364 36.4101 7.54371 35.6133 7.03542C34.8166 6.52714 33.8926 6.25083 32.946 6.23779C31.9995 6.22475 31.0681 6.4755 30.2575 6.96164C29.4469 7.44778 28.7895 8.14987 28.3597 8.98839" fill="#2F2E41"/>
</g>
<defs>
<clipPath id="clip0_157_245">
<rect width="159" height="83" fill="white" transform="translate(0 -0.000488281)"/>
</clipPath>
</defs>
</svg>
