<svg width="82" height="82" viewBox="0 0 82 82" fill="none" xmlns="http://www.w3.org/2000/svg">
<path d="M41 0C18.3563 0 0 18.3563 0 41C0 63.6437 18.3563 82 41 82C63.6328 81.9737 81.9737 63.6328 82 41C82 18.3563 63.6437 0 41 0ZM41 79.3548C19.8172 79.3548 2.64516 62.1828 2.64516 41C2.64516 19.8172 19.8172 2.64516 41 2.64516C62.1732 2.66847 79.3315 19.8268 79.3548 41C79.3548 62.1828 62.1828 79.3548 41 79.3548Z" fill="white"/>
<path d="M41.0001 7.93555C22.739 7.93555 7.93555 22.739 7.93555 41.0001C7.93555 59.2611 22.739 74.0646 41.0001 74.0646C59.2527 74.0443 74.0443 59.2527 74.0646 41.0001C74.0646 22.739 59.2611 7.93555 41.0001 7.93555ZM41.0001 71.4194C24.2 71.4194 10.5807 57.8001 10.5807 41.0001C10.5807 24.2 24.2 10.5807 41.0001 10.5807C57.7924 10.5997 71.4004 24.2078 71.4194 41.0001C71.4194 57.8001 57.8001 71.4194 41.0001 71.4194Z" fill="white"/>
<path d="M56.2282 39.889L33.7827 25.3789C33.5686 25.2406 33.3191 25.1668 33.0642 25.167C32.3338 25.1672 31.7418 25.7595 31.7419 26.4899V55.51C31.7419 56.2404 32.3341 56.8326 33.0645 56.8326C33.3193 56.8327 33.5686 56.7592 33.7827 56.621L56.2282 42.1109C56.3857 42.0092 56.5198 41.8752 56.6215 41.7176C57.0179 41.1039 56.8417 40.2853 56.2282 39.889ZM34.3871 53.0791V28.9261L53.0738 40.9999L34.3871 53.0791Z" fill="white"/>
</svg>
