<svg width="48" height="48" viewBox="0 0 48 48" fill="none" xmlns="http://www.w3.org/2000/svg">
<g clip-path="url(#clip0_157_7)">
<path d="M24.5 34C15.94 34 9 30.154 9 24V14H40V24C40 29.171 33.06 34 24.5 34Z" fill="#203442"/>
<path d="M46.1711 9.99098L27.3001 0.763985C26.2725 0.261955 25.1438 0.00100708 24.0001 0.00100708C22.8564 0.00100708 21.7277 0.261955 20.7001 0.763985L1.8291 9.99098C1.26791 10.2651 0.797285 10.6947 0.473207 11.2286C0.149129 11.7625 -0.0147576 12.3783 0.00104382 13.0026C0.0168453 13.627 0.21167 14.2337 0.56234 14.7505C0.91301 15.2674 1.40476 15.6726 1.9791 15.918L4.5001 17L21.0431 24.079C21.9777 24.4789 22.9836 24.685 24.0001 24.685C25.0166 24.685 26.0226 24.4789 26.9571 24.079L43.5001 17L46.0211 15.922C46.5965 15.6771 47.0894 15.2719 47.4409 14.7546C47.7924 14.2374 47.9877 13.6299 48.0035 13.0047C48.0193 12.3795 47.855 11.763 47.5301 11.2286C47.2052 10.6943 46.7334 10.2646 46.1711 9.99098Z" fill="#4C5665"/>
<path d="M40 38C39.7348 38 39.4804 37.8946 39.2929 37.7071C39.1053 37.5196 39 37.2652 39 37V19.361L24.918 12.14C24.6819 12.0188 24.5037 11.8088 24.4225 11.5562C24.3413 11.3036 24.3638 11.029 24.485 10.793C24.6062 10.5569 24.8162 10.3787 25.0688 10.2975C25.3214 10.2163 25.5959 10.2388 25.832 10.36L41 18.139V37C41 37.2652 40.8946 37.5196 40.7071 37.7071C40.5196 37.8946 40.2652 38 40 38Z" fill="#ECF0F1"/>
<path d="M24.5 14C26.9853 14 29 12.6569 29 11C29 9.34315 26.9853 8 24.5 8C22.0147 8 20 9.34315 20 11C20 12.6569 22.0147 14 24.5 14Z" fill="#203442"/>
<path d="M40 43C42.2091 43 44 41.2091 44 39C44 36.7909 42.2091 35 40 35C37.7909 35 36 36.7909 36 39C36 41.2091 37.7909 43 40 43Z" fill="#68D335"/>
<path d="M45.5 39C45.5 42.0376 43.0376 44.5 40 44.5C36.9624 44.5 34.5 42.0376 34.5 39C34.5 35.9624 36.9624 33.5 40 33.5C43.0376 33.5 45.5 35.9624 45.5 39Z" stroke="#68D335"/>
</g>
<defs>
<clipPath id="clip0_157_7">
<rect width="48" height="48" fill="white"/>
</clipPath>
</defs>
</svg>
