<svg width="104" height="61" viewBox="0 0 104 61" fill="none" xmlns="http://www.w3.org/2000/svg">
<path d="M46.632 60.744C42.024 67.08 35.56 70.248 27.24 70.248C18.92 70.248 12.424 67.08 7.752 60.744C3.144 54.408 0.84 45.96 0.84 35.4C0.84 24.84 3.144 16.392 7.752 10.056C12.424 3.72 18.92 0.551994 27.24 0.551994C35.56 0.551994 42.024 3.72 46.632 10.056C51.304 16.392 53.64 24.84 53.64 35.4C53.64 45.96 51.304 54.408 46.632 60.744ZM27.24 59.496C32.232 59.496 36.04 57.416 38.664 53.256C41.288 49.096 42.6 43.144 42.6 35.4C42.6 27.656 41.288 21.704 38.664 17.544C36.04 13.384 32.232 11.304 27.24 11.304C22.312 11.304 18.504 13.384 15.816 17.544C13.192 21.704 11.88 27.656 11.88 35.4C11.88 43.144 13.192 49.096 15.816 53.256C18.504 57.416 22.312 59.496 27.24 59.496ZM59.0385 69V60.36L82.4625 36.456C88.1585 30.76 91.0065 25.832 91.0065 21.672C91.0065 18.408 90.0145 15.88 88.0305 14.088C86.1105 12.232 83.6465 11.304 80.6385 11.304C75.0065 11.304 70.8465 14.088 68.1585 19.656L58.8465 14.184C60.9585 9.704 63.9345 6.312 67.7745 4.008C71.6145 1.70399 75.8705 0.551994 80.5425 0.551994C86.4305 0.551994 91.4865 2.408 95.7105 6.12C99.9345 9.832 102.047 14.888 102.047 21.288C102.047 28.136 98.2385 35.432 90.6225 43.176L75.4545 58.344H103.295V69H59.0385Z" fill="#F7EEEE"/>
</svg>
