<svg width="104" height="61" viewBox="0 0 104 61" fill="none" xmlns="http://www.w3.org/2000/svg">
<path d="M46.632 60.744C42.024 67.08 35.56 70.248 27.24 70.248C18.92 70.248 12.424 67.08 7.752 60.744C3.144 54.408 0.84 45.96 0.84 35.4C0.84 24.84 3.144 16.392 7.752 10.056C12.424 3.72 18.92 0.551994 27.24 0.551994C35.56 0.551994 42.024 3.72 46.632 10.056C51.304 16.392 53.64 24.84 53.64 35.4C53.64 45.96 51.304 54.408 46.632 60.744ZM27.24 59.496C32.232 59.496 36.04 57.416 38.664 53.256C41.288 49.096 42.6 43.144 42.6 35.4C42.6 27.656 41.288 21.704 38.664 17.544C36.04 13.384 32.232 11.304 27.24 11.304C22.312 11.304 18.504 13.384 15.816 17.544C13.192 21.704 11.88 27.656 11.88 35.4C11.88 43.144 13.192 49.096 15.816 53.256C18.504 57.416 22.312 59.496 27.24 59.496ZM87.0953 29.256C91.9593 30.408 95.8953 32.68 98.9033 36.072C101.975 39.4 103.511 43.592 103.511 48.648C103.511 55.368 101.239 60.648 96.6953 64.488C92.1513 68.328 86.5833 70.248 79.9913 70.248C74.8713 70.248 70.2633 69.064 66.1673 66.696C62.1353 64.328 59.2233 60.872 57.4313 56.328L66.8393 50.856C68.8233 56.616 73.2073 59.496 79.9913 59.496C83.8313 59.496 86.8713 58.536 89.1113 56.616C91.3513 54.632 92.4713 51.976 92.4713 48.648C92.4713 45.32 91.3513 42.696 89.1113 40.776C86.8713 38.856 83.8313 37.896 79.9913 37.896H77.4953L73.0793 31.272L87.5753 12.168H59.4473V1.8H100.727V11.208L87.0953 29.256Z" fill="#F6EEEE"/>
</svg>
