<svg width="112" height="61" viewBox="0 0 112 61" fill="none" xmlns="http://www.w3.org/2000/svg">
<path d="M46.632 60.744C42.024 67.08 35.56 70.248 27.24 70.248C18.92 70.248 12.424 67.08 7.752 60.744C3.144 54.408 0.84 45.96 0.84 35.4C0.84 24.84 3.144 16.392 7.752 10.056C12.424 3.72 18.92 0.551994 27.24 0.551994C35.56 0.551994 42.024 3.72 46.632 10.056C51.304 16.392 53.64 24.84 53.64 35.4C53.64 45.96 51.304 54.408 46.632 60.744ZM27.24 59.496C32.232 59.496 36.04 57.416 38.664 53.256C41.288 49.096 42.6 43.144 42.6 35.4C42.6 27.656 41.288 21.704 38.664 17.544C36.04 13.384 32.232 11.304 27.24 11.304C22.312 11.304 18.504 13.384 15.816 17.544C13.192 21.704 11.88 27.656 11.88 35.4C11.88 43.144 13.192 49.096 15.816 53.256C18.504 57.416 22.312 59.496 27.24 59.496ZM111.517 46.632V56.904H103.837V69H92.7008V56.904H59.6768V46.632L82.8127 1.8H94.8128L71.6768 46.632H92.7008V29.16H103.837V46.632H111.517Z" fill="#F6EEEE"/>
</svg>
