<svg width="107" height="61" viewBox="0 0 107 61" fill="none" xmlns="http://www.w3.org/2000/svg">
<path d="M46.632 60.744C42.024 67.08 35.56 70.248 27.24 70.248C18.92 70.248 12.424 67.08 7.752 60.744C3.144 54.408 0.84 45.96 0.84 35.4C0.84 24.84 3.144 16.392 7.752 10.056C12.424 3.72 18.92 0.551994 27.24 0.551994C35.56 0.551994 42.024 3.72 46.632 10.056C51.304 16.392 53.64 24.84 53.64 35.4C53.64 45.96 51.304 54.408 46.632 60.744ZM27.24 59.496C32.232 59.496 36.04 57.416 38.664 53.256C41.288 49.096 42.6 43.144 42.6 35.4C42.6 27.656 41.288 21.704 38.664 17.544C36.04 13.384 32.232 11.304 27.24 11.304C22.312 11.304 18.504 13.384 15.816 17.544C13.192 21.704 11.88 27.656 11.88 35.4C11.88 43.144 13.192 49.096 15.816 53.256C18.504 57.416 22.312 59.496 27.24 59.496ZM83.4 27.144C89.8 27.144 95.208 29.064 99.624 32.904C104.04 36.68 106.248 41.928 106.248 48.648C106.248 55.368 103.976 60.648 99.432 64.488C94.888 68.328 89.32 70.248 82.728 70.248C77.416 70.248 72.712 69.032 68.616 66.6C64.52 64.104 61.608 60.52 59.88 55.848L69.384 50.376C71.176 56.456 75.624 59.496 82.728 59.496C86.504 59.496 89.512 58.536 91.752 56.616C94.056 54.632 95.208 51.976 95.208 48.648C95.208 45.32 94.088 42.696 91.848 40.776C89.608 38.856 86.632 37.896 82.92 37.896H63.336L65.928 1.8H103.368V12.168H76.104L74.952 27.144H83.4Z" fill="#F6EEEE"/>
</svg>
