<svg width="108" height="61" viewBox="0 0 108 61" fill="none" xmlns="http://www.w3.org/2000/svg">
<path d="M46.632 60.744C42.024 67.08 35.56 70.248 27.24 70.248C18.92 70.248 12.424 67.08 7.752 60.744C3.144 54.408 0.84 45.96 0.84 35.4C0.84 24.84 3.144 16.392 7.752 10.056C12.424 3.72 18.92 0.551994 27.24 0.551994C35.56 0.551994 42.024 3.72 46.632 10.056C51.304 16.392 53.64 24.84 53.64 35.4C53.64 45.96 51.304 54.408 46.632 60.744ZM27.24 59.496C32.232 59.496 36.04 57.416 38.664 53.256C41.288 49.096 42.6 43.144 42.6 35.4C42.6 27.656 41.288 21.704 38.664 17.544C36.04 13.384 32.232 11.304 27.24 11.304C22.312 11.304 18.504 13.384 15.816 17.544C13.192 21.704 11.88 27.656 11.88 35.4C11.88 43.144 13.192 49.096 15.816 53.256C18.504 57.416 22.312 59.496 27.24 59.496ZM83.6768 24.36C90.6528 24.36 96.3488 26.504 100.765 30.792C105.181 35.016 107.389 40.52 107.389 47.304C107.389 54.088 105.181 59.624 100.765 63.912C96.3488 68.136 90.6528 70.248 83.6768 70.248C76.6368 70.248 70.9088 68.136 66.4928 63.912C62.0768 59.624 59.8688 54.088 59.8688 47.304C59.8688 42.184 61.2128 37.672 63.9008 33.768L85.2128 1.8H97.7888L82.4288 24.36H83.6768ZM83.6768 59.784C87.3888 59.784 90.4288 58.664 92.7968 56.424C95.1648 54.12 96.3488 51.08 96.3488 47.304C96.3488 43.528 95.1648 40.52 92.7968 38.28C90.4288 35.976 87.3888 34.824 83.6768 34.824C79.9008 34.824 76.8288 35.976 74.4608 38.28C72.0928 40.52 70.9088 43.528 70.9088 47.304C70.9088 51.08 72.0928 54.12 74.4608 56.424C76.8288 58.664 79.9008 59.784 83.6768 59.784Z" fill="#F6EEEE"/>
</svg>
