<svg width="56" height="55" viewBox="0 0 56 55" fill="none" xmlns="http://www.w3.org/2000/svg">
<path d="M51.4666 28.8318C51.298 27.9687 50.5294 27.3446 49.6345 27.344H47.8322L47.6997 26.564C47.5675 25.7804 46.939 25.1683 46.1401 25.045C45.9628 25.0175 45.7836 24.9992 45.6072 24.9754C45.9128 23.574 45.6589 22.1108 44.8978 20.888C45.2999 19.8636 45.2249 18.7176 44.6925 17.7522C44.1601 16.7868 43.2238 16.099 42.1305 15.8701C41.4315 12.1961 38.1772 9.52547 34.3717 9.50296C34.2784 9.50296 34.1953 9.51488 34.1066 9.51763C33.4986 8.57974 32.4961 7.95728 31.3726 7.82004C30.2492 7.68281 29.122 8.04511 28.2985 8.80813C27.2611 8.14585 26.0507 7.79277 24.8134 7.79155C22.8199 7.79956 20.941 8.70834 19.7193 10.2555C18.3627 9.86703 16.8999 10.1056 15.7439 10.9038C14.588 11.7021 13.8645 12.9733 13.7777 14.3585C12.3528 14.9468 11.4257 16.3165 11.4248 17.8345C11.4277 18.0977 11.459 18.3598 11.5181 18.6165C10.258 20.4822 9.92873 22.809 10.623 24.9415C10.3729 24.9754 10.1172 25.0056 9.87637 25.0405C9.07337 25.1595 8.43923 25.7719 8.30463 26.5585L8.1721 27.3413H6.36517C5.47183 27.3419 4.70415 27.9641 4.53397 28.8254L0.446899 49.4339C0.287286 50.241 0.50373 51.0759 1.0369 51.7097C1.57008 52.3436 2.36404 52.7099 3.20117 52.7082H22.6649C23.4377 53.9604 25.786 54.5415 27.9998 54.5415C30.1904 54.5415 32.5162 53.9741 33.3114 52.7082H52.7985C53.6354 52.7098 54.4292 52.3436 54.9623 51.71C55.4955 51.0764 55.7121 50.2418 55.5528 49.4348L51.4666 28.8318ZM14.2472 19.4937C13.4894 19.0462 13.1277 18.1578 13.3624 17.3205C13.5972 16.4833 14.3709 15.902 15.2552 15.8985C15.874 15.8967 16.4564 16.1856 16.8222 16.6759C17.021 16.9389 17.3475 17.0777 17.6787 17.0402C18.01 17.0026 18.2957 16.7944 18.4282 16.4938C18.5607 16.1933 18.5199 15.8462 18.3212 15.5832C17.6874 14.7513 16.727 14.2191 15.6742 14.1165C15.9525 12.8328 17.1052 11.9137 18.4416 11.9101C18.5554 11.9158 18.6689 11.928 18.7813 11.9468C18.7062 12.1347 18.6408 12.3262 18.5853 12.5206C18.4691 13.0059 18.7691 13.4933 19.2605 13.618C19.7519 13.7426 20.2546 13.4588 20.3922 12.979C20.4984 12.5761 20.6614 12.1898 20.8766 11.8313C21.7045 10.4691 23.1982 9.63197 24.8134 9.62488C25.6925 9.6287 26.5515 9.88349 27.2858 10.3582C27.146 10.7442 27.0718 11.1503 27.0665 11.56C27.0665 12.0662 27.4844 12.4766 27.9998 12.4766C28.5153 12.4766 28.9332 12.0662 28.9332 11.56C28.9332 10.495 29.8122 9.63175 30.8964 9.63175C31.9807 9.63175 32.8597 10.495 32.8597 11.56C32.8597 12.0662 33.2776 12.4766 33.793 12.4766C34.3085 12.4766 34.7264 12.0662 34.7264 11.56C34.7264 11.4894 34.7086 11.4225 34.7049 11.3519C37.3774 11.5138 39.6246 13.3796 40.2321 15.9407C39.7967 16.0652 39.3877 16.2655 39.0244 16.532C38.7576 16.7285 38.6179 17.0498 38.6577 17.3749C38.6976 17.7001 38.9111 17.9796 39.2177 18.1083C39.5244 18.2369 39.8776 18.1951 40.1444 17.9986C40.8902 17.4563 41.9205 17.4995 42.6165 18.1024C43.3125 18.7053 43.4849 19.7038 43.0302 20.4984C42.8271 20.8492 42.5183 21.1297 42.1464 21.3014C41.7563 21.4869 41.5476 21.9117 41.6424 22.327C41.7372 22.7423 42.1106 23.0389 42.544 23.043C42.6808 23.0433 42.816 23.0135 42.9397 22.956C43.1871 22.8382 43.4208 22.6947 43.6369 22.5279C44.1194 23.875 43.8168 25.3732 42.8473 26.4375L42.8249 26.4604C41.609 27.7541 39.6693 28.1037 38.0649 27.3184C37.9078 27.2369 37.7568 27.1443 37.6132 27.0415C38.3006 26.095 38.3956 24.8516 37.8596 23.8149C37.7095 23.5223 37.4119 23.3305 37.0789 23.3118C36.7458 23.2931 36.4279 23.4504 36.2449 23.7243C36.0619 23.9983 36.0417 24.3473 36.1917 24.6399C36.4986 25.2457 36.3072 25.981 35.7418 26.3678C35.4098 26.5849 34.9997 26.6535 34.6132 26.5567C34.2268 26.4599 33.9002 26.2067 33.7146 25.86C33.5654 25.567 33.2684 25.3745 32.9355 25.355C32.6026 25.3354 32.2843 25.4918 32.1006 25.7652C31.9169 26.0386 31.8957 26.3874 32.0449 26.6804C32.5923 27.7656 33.7201 28.451 34.9532 28.4477C35.3546 28.445 35.752 28.3682 36.1245 28.2213C36.4579 28.5079 36.8251 28.7542 37.2184 28.9546C38.5486 29.6318 40.0954 29.7723 41.5294 29.346C40.6071 30.5829 39.2267 31.4142 37.686 31.6606C37.2066 31.7373 36.8672 32.1621 36.9055 32.6376C36.9438 33.1131 37.3469 33.4803 37.8325 33.482C37.8822 33.482 37.9318 33.4784 37.9809 33.471C38.5492 33.3744 39.1047 33.2151 39.6366 32.9962C39.9242 33.4955 40.1575 34.023 40.3329 34.5701C40.365 34.6657 40.3814 34.7656 40.3814 34.8662C40.3812 35.2624 40.1403 35.6202 39.7692 35.7755C39.3399 35.9386 38.8524 35.81 38.5642 35.4575C37.8414 34.6238 36.8949 34.0061 35.8324 33.6745C33.8154 33.0109 33.037 32.4178 32.7066 31.7725C33.1909 31.7131 33.6694 31.615 34.1374 31.4791C34.4562 31.3828 34.6985 31.1268 34.773 30.8076C34.8474 30.4883 34.7428 30.1542 34.4986 29.9312C34.2543 29.7082 33.9074 29.6302 33.5886 29.7265C33.0649 29.8843 32.5243 29.9818 31.9777 30.017C30.9246 30.0979 29.8666 29.9411 28.8846 29.5587C28.5159 29.4175 28.0967 29.52 27.8384 29.8145C26.4795 31.3475 24.1537 31.6081 22.4782 30.415C20.8026 29.2219 20.3317 26.9699 21.3928 25.2247C21.5647 24.9429 21.5704 24.5924 21.4079 24.3053C21.2453 24.0182 20.9392 23.8381 20.6047 23.8328C20.2703 23.8275 19.9584 23.9978 19.7865 24.2796C19.5638 24.6519 19.3847 25.0476 19.2526 25.4594C18.5177 25.4214 17.9381 24.831 17.9264 24.1082V24.0853C17.9259 23.8434 17.827 23.6118 17.6517 23.4418C17.4764 23.2719 17.2393 23.1779 16.993 23.1805C16.4753 23.1856 16.0587 23.5997 16.0597 24.1082C16.0639 25.7339 17.3121 27.0965 18.9577 27.2716C18.961 27.5789 18.9894 27.8855 19.0426 28.1883C16.9587 28.6312 14.7973 27.8955 13.4393 26.2811C12.0813 24.6666 11.7535 22.4431 12.5896 20.5167C12.7984 20.7242 13.0315 20.9067 13.284 21.0603C13.7249 21.314 14.2915 21.1723 14.5552 20.7424C14.8189 20.3125 14.6816 19.7543 14.2472 19.49V19.4937ZM10.1405 26.8573C10.5708 26.795 11.015 26.74 11.4565 26.6831C13.1822 29.3915 16.4826 30.7066 19.6418 29.9446C20.4907 31.527 22.0418 32.6304 23.8372 32.9293C25.6327 33.2282 27.4674 32.6883 28.7997 31.469C29.434 31.6549 30.0872 31.7711 30.7476 31.8155C31.1984 33.4949 32.5013 34.5124 35.2388 35.4135C35.9767 35.6407 36.6351 36.0666 37.139 36.6427C37.6993 37.2971 38.5235 37.6773 39.394 37.6831C39.7747 37.683 40.1515 37.6076 40.5018 37.4613C41.5598 37.0172 42.2461 35.9962 42.2462 34.8662C42.2471 34.5715 42.1992 34.2786 42.1044 33.999C41.8945 33.3514 41.618 32.7263 41.2793 32.1336C42.8664 31.0131 43.972 29.3524 44.3808 27.4751C44.5795 27.2432 44.7593 26.9961 44.9184 26.7363C45.231 26.7757 45.5437 26.8105 45.8582 26.8619L49.2276 46.7664C42.6415 44.6064 35.5192 44.6064 28.9332 46.7664V35.2915C28.9332 34.7853 28.5153 34.3749 27.9998 34.3749C27.4844 34.3749 27.0665 34.7853 27.0665 35.2915V46.7701C20.4812 44.6081 13.359 44.6056 6.7721 46.7627L10.1405 26.8573ZM2.4741 50.5375C2.29774 50.3283 2.22585 50.0526 2.2781 49.7859L6.36517 29.1774H7.8585L4.9297 46.4648C4.82669 47.094 5.06259 47.7308 5.55323 48.1479C6.04387 48.565 6.71935 48.703 7.33863 48.5126C12.3142 46.9294 17.6151 46.5991 22.7545 47.552L22.4764 50.8749H3.20117C2.9196 50.8751 2.65277 50.7513 2.4741 50.5375ZM27.9998 52.7082C25.7514 52.7082 24.4616 52.0555 24.2721 51.765L24.5932 47.9608C25.6194 48.2118 26.6238 48.5425 27.5966 48.9499C27.7225 49.0094 27.8602 49.0407 27.9998 49.0415C28.1399 49.0413 28.278 49.01 28.404 48.9499C29.3762 48.5401 30.3803 48.2072 31.4065 47.9544L31.7276 51.764C31.5381 52.0555 30.2482 52.7082 27.9998 52.7082ZM53.5256 50.5375C53.3469 50.7513 53.0801 50.8751 52.7985 50.8749H33.5261L33.2461 47.5455C38.3884 46.5946 43.6915 46.9278 48.6685 48.5145C49.2876 48.7023 49.9617 48.5624 50.4504 48.1445C50.9392 47.7266 51.1732 47.0902 51.069 46.4621L48.143 29.1783H49.6364L53.7244 49.785C53.7761 50.0524 53.7032 50.3286 53.5256 50.5375Z" fill="#5F1315"/>
<path d="M24.9068 21.2529C24.5247 21.5924 24.495 22.1718 24.8405 22.5472C25.6322 23.4058 26.6786 23.9983 27.8318 24.2412C27.3095 24.964 26.4625 25.393 25.5601 25.3916C25.0446 25.3916 24.6267 25.802 24.6267 26.3083C24.6267 26.8145 25.0446 27.2249 25.5601 27.2249C27.4922 27.2325 29.2259 26.0605 29.9085 24.2852C32.2293 23.9075 34.0666 22.153 34.5163 19.8852C34.5858 19.5608 34.4716 19.2249 34.2176 19.0066C33.9636 18.7883 33.6094 18.7217 33.2913 18.8324C32.9732 18.9431 32.7407 19.2139 32.6833 19.5405C32.5003 20.486 31.9449 21.3223 31.1377 21.868C29.5848 22.8951 27.5023 22.662 26.2246 21.318C25.8789 20.9427 25.289 20.9136 24.9068 21.2529V21.2529Z" fill="#5F1315"/>
<path d="M21.6531 20.2582C22.1685 20.2582 22.5864 19.8478 22.5864 19.3415C22.5864 18.7094 22.8421 18.1032 23.2971 17.6563C23.7522 17.2093 24.3695 16.9582 25.0131 16.9582C25.5285 16.9582 25.9464 16.5478 25.9464 16.0415C25.9464 15.5353 25.5285 15.1249 25.0131 15.1249C22.643 15.1274 20.7223 17.0138 20.7197 19.3415C20.7197 19.5847 20.8181 19.8178 20.9931 19.9897C21.1681 20.1616 21.4055 20.2582 21.6531 20.2582V20.2582Z" fill="#5F1315"/>
<path d="M28.9331 2.29159V1.37492C28.9331 0.868658 28.5152 0.458252 27.9997 0.458252C27.4843 0.458252 27.0664 0.868658 27.0664 1.37492V2.29159C27.0664 2.79785 27.4843 3.20825 27.9997 3.20825C28.5152 3.20825 28.9331 2.79785 28.9331 2.29159Z" fill="#5F1315"/>
<path d="M43.316 7.03622L42.3826 7.95288C42.14 8.18304 42.0427 8.52386 42.1281 8.84435C42.2135 9.16484 42.4684 9.41514 42.7947 9.49903C43.121 9.58291 43.468 9.48735 43.7024 9.24905L44.6357 8.33239C44.8783 8.10223 44.9756 7.76141 44.8902 7.44092C44.8048 7.12043 44.5499 6.87013 44.2236 6.78625C43.8973 6.70236 43.5503 6.79792 43.316 7.03622Z" fill="#5F1315"/>
<path d="M12.9573 9.51763C13.3347 9.51756 13.6749 9.29422 13.8194 8.95173C13.9638 8.60925 13.884 8.21505 13.6171 7.95288L12.6838 7.03622C12.4495 6.79792 12.1024 6.70236 11.7761 6.78625C11.4498 6.87013 11.195 7.12043 11.1095 7.44092C11.0241 7.76141 11.1214 8.10223 11.3641 8.33238L12.2974 9.24905C12.4724 9.42097 12.7097 9.51758 12.9573 9.51763Z" fill="#5F1315"/>
<path d="M20.1418 5.66031C20.2645 5.66005 20.3859 5.63639 20.4993 5.59064C20.7281 5.49757 20.9098 5.31904 21.0045 5.09434C21.0992 4.86964 21.0991 4.61719 21.0042 4.39256L19.9318 1.85156C19.809 1.54207 19.5253 1.32207 19.1903 1.2765C18.8553 1.23094 18.5213 1.36695 18.3175 1.632C18.1136 1.89706 18.0717 2.24969 18.208 2.55373L19.2794 5.09473C19.424 5.43718 19.7644 5.6604 20.1418 5.66031V5.66031Z" fill="#5F1315"/>
<path d="M37.2862 1.35563C36.8102 1.16221 36.2646 1.38417 36.0673 1.85154L34.9949 4.39254C34.8997 4.61728 34.8995 4.86996 34.9942 5.09488C35.0889 5.3198 35.2708 5.49848 35.4998 5.59154C35.6133 5.63729 35.7347 5.66095 35.8573 5.66121C36.2348 5.6613 36.5751 5.43809 36.7197 5.09563L37.7912 2.55463C37.8863 2.32989 37.8866 2.07721 37.7918 1.85229C37.6971 1.62737 37.5152 1.44869 37.2862 1.35563V1.35563Z" fill="#5F1315"/>
<path d="M46.97 16.5751C47.0927 16.5749 47.2142 16.5509 47.3274 16.5045L49.9137 15.4522C50.2218 15.3269 50.4385 15.0497 50.4821 14.725C50.5256 14.4003 50.3896 14.0775 50.125 13.878C49.8605 13.6786 49.5078 13.6329 49.1997 13.7582L46.6125 14.8105C46.1996 14.9771 45.9646 15.4074 46.0517 15.8373C46.1388 16.2672 46.5236 16.5764 46.97 16.5751Z" fill="#5F1315"/>
<path d="M8.67216 16.5045C9.14845 16.6984 9.69461 16.4764 9.89203 16.0086C10.0895 15.5408 9.86339 15.0044 9.38709 14.8105L6.79989 13.7582C6.3236 13.5645 5.77766 13.7868 5.58049 14.2546C5.38333 14.7223 5.6096 15.2585 6.08589 15.4522L8.67216 16.5045Z" fill="#5F1315"/>
</svg>
