<svg width="55" height="47" viewBox="0 0 55 47" fill="none" xmlns="http://www.w3.org/2000/svg">
<path d="M39.405 0.733608C34.817 0.709089 30.4553 2.72407 27.4999 6.23354C24.5631 2.70009 20.1893 0.679373 15.5948 0.733608C6.98202 0.733608 0 7.71563 0 16.3285C0 31.088 25.7595 45.4993 26.8038 46.0563C27.2252 46.3379 27.7747 46.3379 28.1962 46.0563C29.2405 45.4993 55 31.2969 55 16.3285C55 7.71563 48.0178 0.733608 39.405 0.733608ZM27.4999 43.2715C23.462 40.9044 2.78481 28.3032 2.78481 16.3285C2.78481 9.25369 8.52008 3.51829 15.595 3.51829C19.9274 3.46139 23.9819 5.64668 26.3165 9.29673C26.7905 9.95036 27.7048 10.096 28.3584 9.62188C28.4832 9.53126 28.593 9.42159 28.6835 9.29673C32.5553 3.37544 40.4943 1.71398 46.4156 5.58578C50.0404 7.95603 52.2222 11.9973 52.2151 16.3283C52.2152 28.4424 31.5379 40.974 27.4999 43.2715Z" fill="#5F1315"/>
</svg>
