<svg width="55" height="55" viewBox="0 0 55 55" fill="none" xmlns="http://www.w3.org/2000/svg">
<path d="M27.5 0C12.3121 0 0 12.3121 0 27.5C0 42.6879 12.3121 55 27.5 55C42.6806 54.9824 54.9824 42.6806 55 27.5C55 12.3121 42.6879 0 27.5 0ZM27.5 53.2258C13.292 53.2258 1.77419 41.708 1.77419 27.5C1.77419 13.292 13.292 1.77419 27.5 1.77419C41.7015 1.78983 53.2102 13.2985 53.2258 27.5C53.2258 41.708 41.708 53.2258 27.5 53.2258Z" fill="#5F1315"/>
<path d="M27.4999 5.32263C15.2517 5.32263 5.32251 15.2518 5.32251 27.5001C5.32251 39.7483 15.2517 49.6775 27.4999 49.6775C39.7425 49.6638 49.6637 39.7427 49.6773 27.5001C49.6773 15.2518 39.7482 5.32263 27.4999 5.32263ZM27.4999 47.9033C16.2316 47.9033 7.0967 38.7684 7.0967 27.5001C7.0967 16.2317 16.2316 7.09683 27.4999 7.09683C38.7631 7.10958 47.8904 16.2369 47.9032 27.5001C47.9032 38.7684 38.7683 47.9033 27.4999 47.9033Z" fill="#5F1315"/>
<path d="M37.714 26.7549L22.6591 17.0225C22.5155 16.9297 22.3481 16.8803 22.1772 16.8804C21.6873 16.8805 21.2902 17.2778 21.2903 17.7677V37.2324C21.2903 37.7223 21.6875 38.1195 22.1774 38.1195C22.3483 38.1196 22.5155 38.0702 22.6591 37.9775L37.714 28.2452C37.8197 28.177 37.9096 28.0871 37.9778 27.9814C38.2437 27.5698 38.1255 27.0207 37.714 26.7549ZM23.0645 35.6019V19.4017L35.5983 27.5L23.0645 35.6019Z" fill="#5F1315"/>
</svg>
