<svg width="55" height="55" viewBox="0 0 55 55" fill="none" xmlns="http://www.w3.org/2000/svg">
<g clip-path="url(#clip0_157_143)">
<path d="M42.7423 45.9463V15.5533C42.7423 15.029 42.5174 14.529 42.1251 14.1813L28.7165 2.2942C28.0232 1.67958 26.9773 1.67947 26.2838 2.2942L20.5739 7.3561C21.5615 8.56928 22.8662 9.5261 24.3842 10.0898C24.9886 8.98953 26.1586 8.24198 27.5001 8.24198C29.4591 8.24198 31.0528 9.83576 31.0528 11.7947C31.0528 12.301 30.6423 12.7115 30.136 12.7115C29.6297 12.7115 29.2192 12.301 29.2192 11.7947C29.2192 10.8468 28.448 10.0756 27.5001 10.0756C26.5523 10.0756 25.7811 10.8468 25.7811 11.7947C25.7811 12.7425 26.5523 13.5137 27.5001 13.5137C28.0065 13.5137 28.417 13.9242 28.417 14.4305C28.417 14.9368 28.0065 15.3474 27.5001 15.3474C25.5702 15.3474 23.9959 13.8002 23.9496 11.8813C22.058 11.2219 20.4296 10.0611 19.2008 8.57329L12.8752 14.1812C12.4829 14.5289 12.258 15.029 12.258 15.5533V51.3327C12.258 52.3437 13.0806 53.1663 14.0916 53.1663H40.9087C41.9197 53.1663 42.7423 52.3437 42.7423 51.3327C42.7423 50.8264 43.1528 50.4158 43.6592 50.4158C44.1655 50.4158 44.576 50.8264 44.576 51.3327C44.576 53.3548 42.9309 55 40.9087 55H14.0916C12.0694 55 10.4243 53.3548 10.4243 51.3327V15.5533C10.4243 14.5048 10.8742 13.5045 11.6588 12.8091L18.1513 7.05331C17.2416 5.46331 16.7274 3.63265 16.7274 1.70961C16.7274 1.20329 17.1379 0.792787 17.6442 0.792787C18.1505 0.792787 18.561 1.20329 18.561 1.70961C18.561 3.17068 18.919 4.56746 19.5585 5.80575L25.0672 0.922059C26.4543 -0.307516 28.5459 -0.307516 29.9328 0.922059L43.3414 12.8091C44.1259 13.5045 44.5759 14.5048 44.5759 15.5533V45.9463C44.5759 46.4526 44.1654 46.8632 43.659 46.8632C43.1527 46.8632 42.7423 46.4528 42.7423 45.9463ZM33.5741 24.974C36.1018 24.974 38.1582 27.0304 38.1582 29.5581V41.706C38.1582 44.2337 36.1018 46.2901 33.5741 46.2901H21.4262C18.8985 46.2901 16.8421 44.2337 16.8421 41.706V29.5581C16.8421 27.0304 18.8985 24.974 21.4262 24.974H33.5741ZM33.5741 26.8076H21.4262C19.9097 26.8076 18.6757 28.0416 18.6757 29.5581V41.706C18.6757 43.2226 19.9097 44.4565 21.4262 44.4565H33.5741C35.0906 44.4565 36.3246 43.2226 36.3246 41.706V29.5581C36.3246 28.0416 35.0908 26.8076 33.5741 26.8076Z" fill="#5F1315"/>
</g>
<defs>
<clipPath id="clip0_157_143">
<rect width="55" height="55" fill="white"/>
</clipPath>
</defs>
</svg>
