<svg width="56" height="56" viewBox="0 0 56 56" fill="none" xmlns="http://www.w3.org/2000/svg">
<g clip-path="url(#clip0_157_76)">
<path d="M23.346 3.74426C12.5253 3.74426 3.75342 12.5161 3.75342 23.3368C3.75342 34.1575 12.5253 42.9294 23.346 42.9294C34.1667 42.9294 42.9386 34.1575 42.9386 23.3368C42.9268 12.521 34.1618 3.75604 23.346 3.74426ZM23.346 5.61022C29.109 5.61477 34.5094 8.4235 37.8221 13.1394L35.4897 15.4718C34.9221 15.1284 34.2722 14.9446 33.6088 14.94C31.5477 14.94 29.8769 16.6109 29.8769 18.6719C29.8801 19.3361 30.0629 19.987 30.4058 20.5556L24.2967 26.6648C23.1399 25.9594 21.6861 25.9594 20.5293 26.6648L16.2861 22.4216C16.6291 21.8529 16.8119 21.2021 16.8151 20.5379C16.8177 18.4809 15.1523 16.8113 13.0953 16.8088C11.3942 16.8067 9.90782 17.9574 9.48378 19.6049H6.02242C7.78891 11.4475 14.9996 5.62247 23.346 5.61022ZM35.4747 18.6719C35.4747 19.7025 34.6394 20.5379 33.6088 20.5379C32.5782 20.5379 31.7428 19.7025 31.7428 18.6719C31.7428 17.6413 32.5782 16.806 33.6088 16.806C34.6394 16.806 35.4747 17.6413 35.4747 18.6719ZM24.279 29.8677C24.279 30.8983 23.4436 31.7336 22.413 31.7336C21.3824 31.7336 20.5471 30.8983 20.5471 29.8677C20.5471 28.8371 21.3824 28.0017 22.413 28.0017C23.4436 28.0017 24.279 28.8371 24.279 29.8677ZM14.9492 20.5379C14.9492 21.5685 14.1138 22.4039 13.0832 22.4039C12.0526 22.4039 11.2173 21.5685 11.2173 20.5379C11.2173 19.5073 12.0526 18.6719 13.0832 18.6719C14.1138 18.6719 14.9492 19.5073 14.9492 20.5379ZM31.959 38.8367C29.3243 40.2996 26.3597 41.066 23.346 41.0633C13.5625 41.07 5.62602 33.1444 5.61938 23.361C5.61891 22.7296 5.65226 22.0985 5.71921 21.4708H9.48378C9.90794 23.1134 11.3867 24.2633 13.0832 24.2697C13.7474 24.2664 14.3982 24.0837 14.9669 23.7407L19.2101 27.9839C18.8671 28.5525 18.6844 29.2034 18.6811 29.8676C18.6811 31.9286 20.3519 33.5995 22.413 33.5995C24.4741 33.5995 26.1449 31.9286 26.1449 29.8676C26.1417 29.2034 25.9589 28.5525 25.6159 27.9839L31.7251 21.8747C32.2937 22.2177 32.9446 22.4005 33.6088 22.4037C35.6698 22.4037 37.3407 20.7329 37.3407 18.6718C37.3374 18.0077 37.1547 17.3568 36.8117 16.7881L38.8456 14.7552C43.5939 23.3069 40.5106 34.0885 31.959 38.8367Z" fill="#5F1315"/>
<path d="M46.6702 9.34396C48.3667 9.33754 49.8454 8.18738 50.2696 6.54409H56V4.67751H50.2696C49.8454 3.03422 48.3667 1.88405 46.6702 1.87764C44.6091 1.87764 42.9383 3.54904 42.9383 5.6108C42.9415 6.27518 43.1243 6.92627 43.4672 7.49511L41.828 9.1349C33.9846 -1.08708 19.3424 -3.01316 9.12381 4.8329C-1.09477 12.679 -3.02021 27.3261 4.82324 37.5481C12.2269 47.1968 25.7984 49.5374 36.0043 42.9256L38.8201 45.7423L40.1393 47.062L47.6498 54.575C49.56 56.4858 52.6568 56.4858 54.5669 54.575C56.4771 52.6642 56.4771 49.5663 54.5669 47.6555L47.0564 40.1426L45.7372 38.8229L42.9215 36.0062C47.9198 28.3047 47.9198 18.3821 42.9215 10.6804L44.7874 8.81385C45.3557 9.15707 46.0064 9.34023 46.6702 9.34396ZM46.6702 3.74422C47.7008 3.74422 48.5361 4.57986 48.5361 5.6108C48.5361 6.64173 47.7008 7.47738 46.6702 7.47738C45.6396 7.47738 44.8042 6.64173 44.8042 5.6108C44.8042 4.57986 45.6397 3.74422 46.6702 3.74422ZM53.2477 48.9752C54.4426 50.1437 54.4644 52.06 53.2963 53.2553C52.1282 54.4506 50.2126 54.4724 49.0177 53.3039C49.0012 53.288 48.9851 53.2717 48.969 53.2553L41.4585 45.7423L45.7372 41.4622L53.2477 48.9752ZM44.418 40.1426L40.1393 44.4226L37.5568 41.8393C37.6884 41.7385 37.8115 41.6274 37.9412 41.5238C38.0709 41.4202 38.2211 41.2961 38.3601 41.1794C38.5644 41.0077 38.766 40.8341 38.9638 40.6559C39.0655 40.5625 39.1625 40.4692 39.2623 40.3759C39.6448 40.0175 40.0152 39.647 40.3735 39.2643C40.4668 39.1645 40.5601 39.0674 40.6534 38.9657C40.8316 38.7678 41.0051 38.5662 41.1768 38.3618C41.2938 38.2237 41.4085 38.0841 41.5211 37.9428C41.6237 37.814 41.7347 37.6908 41.8355 37.5592L44.418 40.1426ZM40.7999 35.8074C40.506 36.2181 40.2028 36.6203 39.8827 37.0076C39.7894 37.1206 39.6896 37.2298 39.5935 37.3408C39.308 37.6731 39.0132 37.9954 38.7091 38.3077C38.5766 38.4445 38.4419 38.5793 38.3051 38.7118C37.994 39.0161 37.6719 39.311 37.3385 39.5966C37.2275 39.6899 37.1183 39.7916 37.0054 39.8859C36.6182 40.206 36.2161 40.5093 35.8056 40.8033C26.1474 47.7056 12.7243 45.4688 5.82432 35.8074C-1.07564 26.146 1.16036 12.7184 10.8186 5.81612C20.4768 -1.08615 33.8999 1.15049 40.7999 10.812C46.139 18.2879 46.139 28.3315 40.7999 35.8074Z" fill="#5F1315"/>
</g>
<defs>
<clipPath id="clip0_157_76">
<rect width="56" height="56" fill="white"/>
</clipPath>
</defs>
</svg>
