<svg width="56" height="56" viewBox="0 0 56 56" fill="none" xmlns="http://www.w3.org/2000/svg">
<path d="M39.7684 34.3974C39.2668 33.9482 38.4962 33.992 38.0494 34.4924C35.5099 37.3301 31.848 38.9565 27.9998 38.9565C24.1529 38.9565 20.4898 37.3301 17.9503 34.4924C17.5011 33.992 16.7329 33.9482 16.2313 34.3974C15.7298 34.8454 15.6884 35.6148 16.1364 36.1164C19.1372 39.4691 23.4614 41.3913 27.9998 41.3913C32.5395 41.3913 36.8637 39.4678 39.8633 36.1164C40.3113 35.6148 40.2687 34.8454 39.7684 34.3974Z" fill="#5F1315"/>
<path d="M28 0C12.561 0 0 12.561 0 28C0 43.439 12.561 56 28 56C43.439 56 56 43.439 56 28C56 12.561 43.439 0 28 0ZM28 53.5652C13.9026 53.5652 2.43478 42.0974 2.43478 28C2.43478 13.9026 13.9026 2.43478 28 2.43478C42.0974 2.43478 53.5652 13.9026 53.5652 28C53.5652 42.0974 42.0974 53.5652 28 53.5652Z" fill="#5F1315"/>
<path d="M37.739 19.4783C34.3827 19.4783 31.6521 22.2089 31.6521 25.5652C31.6521 26.2372 32.1975 26.7826 32.8695 26.7826C33.5415 26.7826 34.0869 26.2372 34.0869 25.5652C34.0869 23.5517 35.7255 21.9131 37.739 21.9131C39.7526 21.9131 41.3912 23.5517 41.3912 25.5652C41.3912 26.2372 41.9366 26.7826 42.6086 26.7826C43.2806 26.7826 43.826 26.2372 43.826 25.5652C43.826 22.2089 41.0954 19.4783 37.739 19.4783Z" fill="#5F1315"/>
<path d="M21.913 25.5652C21.913 26.2372 22.4584 26.7826 23.1304 26.7826C23.8024 26.7826 24.3477 26.2372 24.3477 25.5652C24.3477 22.2089 21.6171 19.4783 18.2608 19.4783C14.9044 19.4783 12.1738 22.2089 12.1738 25.5652C12.1738 26.2372 12.7192 26.7826 13.3912 26.7826C14.0632 26.7826 14.6086 26.2372 14.6086 25.5652C14.6086 23.5517 16.2472 21.9131 18.2608 21.9131C20.2744 21.9131 21.913 23.5517 21.913 25.5652Z" fill="#5F1315"/>
</svg>
